<svg xmlns="http://www.w3.org/2000/svg" xmlns:xlink="http://www.w3.org/1999/xlink" viewBox="0 0 64 64">
  <defs>
    <linearGradient id="a" x1="34.7" y1="28.67" x2="34.7" y2="8.16" gradientUnits="userSpaceOnUse">
      <stop offset="0.63" stop-color="#d61201"/>
      <stop offset="0.64" stop-color="#db2c06"/>
      <stop offset="0.67" stop-color="#e4530d"/>
      <stop offset="0.69" stop-color="#eb7514"/>
      <stop offset="0.72" stop-color="#f19219"/>
      <stop offset="0.75" stop-color="#f6aa1d"/>
      <stop offset="0.78" stop-color="#f9bc21"/>
      <stop offset="0.83" stop-color="#fcc923"/>
      <stop offset="0.88" stop-color="#fed025"/>
      <stop offset="1" stop-color="#fed225"/>
    </linearGradient>
    <linearGradient id="b" x1="30.23" y1="-502.76" x2="30.23" y2="-556.31" gradientTransform="translate(-49.75 553.3) rotate(5.58)" gradientUnits="userSpaceOnUse">
      <stop offset="0.37" stop-color="#6d0e0c"/>
      <stop offset="0.43" stop-color="#7f1d0a"/>
      <stop offset="0.62" stop-color="#b64b06"/>
      <stop offset="0.79" stop-color="#de6b03"/>
      <stop offset="0.92" stop-color="#f68001"/>
      <stop offset="1" stop-color="#ff8700"/>
    </linearGradient>
    <linearGradient id="c" x1="15.95" y1="-527.35" x2="44.65" y2="-527.35" gradientTransform="translate(-49.75 553.3) rotate(5.58)" gradientUnits="userSpaceOnUse">
      <stop offset="0" stop-color="#d40001"/>
      <stop offset="0" stop-color="#d40001"/>
      <stop offset="0.29" stop-color="#e72401"/>
      <stop offset="0.56" stop-color="#f43d00"/>
      <stop offset="0.81" stop-color="#fc4d00"/>
      <stop offset="1" stop-color="#ff5200"/>
    </linearGradient>
    <linearGradient id="d" x1="19.97" y1="-516.99" x2="36.64" y2="-516.99" gradientTransform="translate(-49.75 553.3) rotate(5.58)" gradientUnits="userSpaceOnUse">
      <stop offset="0" stop-color="#512209"/>
      <stop offset="0.51" stop-color="#630a09"/>
      <stop offset="0.62" stop-color="#680c0c"/>
      <stop offset="0.76" stop-color="#751314"/>
      <stop offset="0.9" stop-color="#8c1d21"/>
      <stop offset="1" stop-color="#a0272d"/>
    </linearGradient>
  </defs>
  <g>
    <path d="M46.93,21.92a23.35,23.35,0,0,0-2.33-2.37,16.49,16.49,0,0,1-3-3.34,6.06,6.06,0,0,1-.93-3.14,3.9,3.9,0,0,1,0-.59l-.16.15a6,6,0,0,0-1.41,2.51,4.41,4.41,0,0,0-.13.71l-.25,5.81-3.17-5a8.84,8.84,0,0,1-1.1-4.52,12.7,12.7,0,0,1,.69-4A12.18,12.18,0,0,0,32.13,11,15,15,0,0,0,30,15L28.54,19l-1.69-3.21c-.13.34-.28.7-.46,1.07a20.2,20.2,0,0,1-3.94,5.32,6.53,6.53,0,0,1-.59,2.33l25.68,4.19A49.73,49.73,0,0,1,46.93,21.92Z" opacity="0.45" fill="url(#a)"/>
    <path d="M48.29,23.48A3.33,3.33,0,0,0,47,20.53C43.63,16.85,39,14.68,44.18,9c-6.81,1.17-7.29,6.65-7.29,6.65S34,10.56,40.58,3.15c-4.74,3.46-9.1,3.69-12.06,11.06A6.57,6.57,0,0,0,26,11.13s2,3.45-4.08,9.24a5.94,5.94,0,0,0-2.62,2.85c-.79,2,1.35,20.3-1,23s-3.85,2.56-4.53,4.47,1.51,3.87,4.13,4.07C47.23,57,48.29,23.48,48.29,23.48Z" fill="url(#b)"/>
    <path d="M46.84,23.37a3.61,3.61,0,0,0-2.55-3.8,7.65,7.65,0,0,1-3.12-3.3,5.87,5.87,0,0,1-.73-3,5.51,5.51,0,0,1,.06-.57,1.06,1.06,0,0,0-.15.15,5.93,5.93,0,0,0-1.44,2.39,4,4,0,0,0-.15.68l-.32,3.62-1.27,0-1.65-2.91a8.4,8.4,0,0,1-.84-4.38,12.63,12.63,0,0,1,.82-3.88,12.15,12.15,0,0,0-3,2.64,14.88,14.88,0,0,0-2.21,3.9l-1.51,3.77-1.44-3.13c-.14.32-.3.67-.48,1-.78,1.5-1.74,2.29-4.3,4.28h0a6,6,0,0,0-1.83,2.47c-.74,2,1,20.28-1.15,23s-3.5,2.59-4.14,4.5,1.44,2.58,3.8,2.76C45.6,55.57,46.84,23.37,46.84,23.37Z" opacity="0.75" fill="url(#c)"/>
    <path d="M35.82,31a2.92,2.92,0,0,1-3.12-2.11c-2.36.16-3-.25-3-.25,1.31,3.16,5.55,4.85,9.46,3.78s6-4.52,4.72-7.68c0,0-1.64,2.21-5.83,3.36C38,28.08,38.23,30.58,35.82,31Z" fill="#fff"/>
    <path d="M20.58,30.27c2,0,2.63-1.22,2.75-2v0a12.74,12.74,0,0,0,5,.43,6.63,6.63,0,0,1-7.62,2.91" fill="#fff"/>
    <path d="M20.42,40.89c1.1-.68,2.13-.67,4-.53C32.57,41,35,44.7,35,44.7c1.45.11,1.94-2.17,2.08-3.35,0,0-4.72-2.85-13.22-2.66a11.67,11.67,0,0,0-3.32.59Z" fill="url(#d)"/>
    <path d="M20.46,27.61l.12,2.64s2.45.27,2.82-2C21.44,27.88,20.46,27.61,20.46,27.61Z" fill="#420809"/>
    <path d="M32.73,28.82a3,3,0,0,0,3.33,2.07A2.2,2.2,0,0,0,38,28.09a15,15,0,0,1-2.62.58C34.07,28.82,32.73,28.82,32.73,28.82Z" fill="#420809"/>
  </g>
</svg>
