<svg xmlns="http://www.w3.org/2000/svg" xmlns:xlink="http://www.w3.org/1999/xlink" viewBox="0 0 64 64">
  <defs>
    <linearGradient id="a" x1="32.42" y1="51.57" x2="32.42" y2="15.39" gradientUnits="userSpaceOnUse">
      <stop offset="0" stop-color="#8350a4"/>
      <stop offset="0" stop-color="#5f238d"/>
      <stop offset="0.32" stop-color="#814da2"/>
      <stop offset="1" stop-color="#591c89"/>
    </linearGradient>
    <linearGradient id="b" x1="32.42" y1="52.07" x2="32.42" y2="14.89" gradientUnits="userSpaceOnUse">
      <stop offset="0" stop-color="#8350a4"/>
      <stop offset="0" stop-color="#461869"/>
      <stop offset="0.32" stop-color="#814da2"/>
      <stop offset="1" stop-color="#591c89"/>
    </linearGradient>
  </defs>
  <g>
    <path d="M13.1,45.64c1.14.21,1.11-.62,1.44-1.37.5-1.13,2.11-1.68,2.67-.86a1.5,1.5,0,0,1,.19,1c-.14,1.44-1.57,3.13-1,4.6.86,2.3,3.32,1.32,3.29-1,0-1.35-1.34-5.56.3-6.28.86-.14,1.3.07,1.51.47.71,1.39-1.4,5.14.2,5.45,2.06.41.89-2.48,2.74-3,.17,0-.08-1,.52-1,.28,0,.53.31.69.58a3.34,3.34,0,0,1,.09,2.12c-.17,1.41-.26,2.78,1.58,2.7,2.14-.09,1.08-2.06,1.31-3.37,0-.16.06-.38.22-.47s.12,0,.28.09.19.51.53.25.12-1.47.42-1.59,1,1,1.09,1.23,1,3.11,1.29,3a.57.57,0,0,0,.33-.26c.53-.75-.54-1.94,0-2.77a1.53,1.53,0,0,1,2.31,0c.44.73-.24,2.05-.29,2.82,1.12.33.74-1.49.7-2s-.43-1.62.33-2a4.45,4.45,0,0,1,2-.24c.73.19.1.84.5,1.26.17.17.7.33.86.09s-.07-.5-.08-.68c0-.67.38-2,.8-.75a5.26,5.26,0,0,1,0,3c-.33,1.19-1,2.7-.51,4a1.53,1.53,0,0,0,1.88.88,2.27,2.27,0,0,0,1.57-1.08c.62-1.15,0-2.59-.3-3.7s-.41-3.32,1-3.32.32.89.32,1.5c0,1.1,1.45.3,1.68-.23s-.29-1.66.16-2,1.41.09,1.69.51c.48.72,0,1.62-.17,2.31-.25,1.13-.13,3.87,1.7,3.56.68-.12.9-1.33.81-2.08-.12-1-.89-.91-1.15-1.85s-.34-4.53.46-5.11c.54.4.64,3.22,1.73,2.11l.11-.13c.54-.72.15-1.86.12-2.73a7.66,7.66,0,0,1,.67-2.68,9.1,9.1,0,0,0,.27-.93c.25-1.18-.18-3-.18-4.34,0-.22,0-.44,0-.67A10.06,10.06,0,0,0,51.93,27a11.12,11.12,0,0,0-3.39-6.41c-3.56-3.49-9.5-5.53-16-5.2-.63,0-1.28.08-1.93.16a26.31,26.31,0,0,0-4.56.95,23.29,23.29,0,0,0-6.62,3.14A19.86,19.86,0,0,0,17.72,21a13.2,13.2,0,0,0-4.65,7.85,10.21,10.21,0,0,0,.33,4.43l0,.06c0,.46.07.85.09,1a17.69,17.69,0,0,1,.34,2.8q0,.45,0,.87c0,.54-.08,1.07-.06,1.61a7.22,7.22,0,0,1-.35,3.2C13,43.74,12.48,44.63,13.1,45.64Z" fill="url(#a)"/>
    <path d="M21.64,37.12s.82-2,2-2,1.62,2,3,2,1.46-2,3-2,1.63,2,3.09,2,1.83-2,2.95-2,2,2.19,2,2.19" fill="none" stroke="#0f0830" stroke-linecap="round" stroke-miterlimit="10" stroke-width="2"/>
    <path d="M13.1,45.64c1.14.21,1.11-.62,1.44-1.37.5-1.13,2.11-1.68,2.67-.86a1.5,1.5,0,0,1,.19,1c-.14,1.44-1.57,3.13-1,4.6.86,2.3,3.32,1.32,3.29-1,0-1.35-1.34-5.56.3-6.28.86-.14,1.3.07,1.51.47.71,1.39-1.4,5.14.2,5.45,2.06.41.89-2.48,2.74-3,.17,0-.08-1,.52-1,.28,0,.53.31.69.58a3.34,3.34,0,0,1,.09,2.12c-.17,1.41-.26,2.78,1.58,2.7,2.14-.09,1.08-2.06,1.31-3.37,0-.16.06-.38.22-.47s.12,0,.28.09.19.51.53.25.12-1.47.42-1.59,1,1,1.09,1.23,1,3.11,1.29,3a.57.57,0,0,0,.33-.26c.53-.75-.54-1.94,0-2.77a1.53,1.53,0,0,1,2.31,0c.44.73-.24,2.05-.29,2.82,1.12.33.74-1.49.7-2s-.43-1.62.33-2a4.45,4.45,0,0,1,2-.24c.73.19.1.84.5,1.26.17.17.7.33.86.09s-.07-.5-.08-.68c0-.67.38-2,.8-.75a5.26,5.26,0,0,1,0,3c-.33,1.19-1,2.7-.51,4a1.53,1.53,0,0,0,1.88.88,2.27,2.27,0,0,0,1.57-1.08c.62-1.15,0-2.59-.3-3.7s-.41-3.32,1-3.32.32.89.32,1.5c0,1.1,1.45.3,1.68-.23s-.29-1.66.16-2,1.41.09,1.69.51c.48.72,0,1.62-.17,2.31-.25,1.13-.13,3.87,1.7,3.56.68-.12.9-1.33.81-2.08-.12-1-.89-.91-1.15-1.85s-.34-4.53.46-5.11c.54.4.64,3.22,1.73,2.11l.11-.13c.54-.72.15-1.86.12-2.73a7.66,7.66,0,0,1,.67-2.68,9.1,9.1,0,0,0,.27-.93c.25-1.18-.18-3-.18-4.34,0-.22,0-.44,0-.67A10.06,10.06,0,0,0,51.93,27a11.12,11.12,0,0,0-3.39-6.41c-3.56-3.49-9.5-5.53-16-5.2-.63,0-1.28.08-1.93.16a26.31,26.31,0,0,0-4.56.95,23.29,23.29,0,0,0-6.62,3.14A19.86,19.86,0,0,0,17.72,21a13.2,13.2,0,0,0-4.65,7.85,10.21,10.21,0,0,0,.33,4.43l0,.06c0,.46.07.85.09,1a17.69,17.69,0,0,1,.34,2.8q0,.45,0,.87c0,.54-.08,1.07-.06,1.61a7.22,7.22,0,0,1-.35,3.2C13,43.74,12.48,44.63,13.1,45.64Z" fill="none" stroke-miterlimit="10" stroke="url(#b)"/>
    <path d="M26.16,22.83a9.92,9.92,0,0,1,5.66-11.65c6.28-3.07,10.91,4.28,10.91,4.28s4.41,11.53-7,14.31C28.79,29.35,26.16,22.83,26.16,22.83Z" fill="#fff"/>
    <path d="M26.16,22.83a9.92,9.92,0,0,1,5.66-11.65c6.28-3.07,10.91,4.28,10.91,4.28s4.41,11.53-7,14.31C28.79,29.35,26.16,22.83,26.16,22.83Z" fill="#fff"/>
    <path d="M34.38,20.78c.66.59.14,1.53.14,1.53-1.32,1-2.89-.61-2.65-2.4a3.47,3.47,0,0,1,1.4-2.34c1.52-1,3.2-.3,4.35,1.13a4.67,4.67,0,0,1-.08,5.53c-1.8,2.37-4.63,2.42-6.82.64a6.72,6.72,0,0,1-.45-9,6.13,6.13,0,0,1,9.33.22,8.53,8.53,0,0,1,1.07,9.17,7.41,7.41,0,0,1-3.51,3.47,7,7,0,0,1-1.48.5,7.8,7.8,0,0,1-6.1-1.39,9.49,9.49,0,0,1-1.06-.94A9.85,9.85,0,0,1,26,17.81a9.21,9.21,0,0,1,10.87-7c2.62.59,4.38,2.42,5.82,4.65" fill="none" stroke="#1f0a56" stroke-miterlimit="10"/>
    <path d="M10.38,28.65A7.78,7.78,0,0,1,14,19.3c4.61-2.83,6.55,2.31,8,2.58.9,1.74,2.66,9-4.43,11.28C12.48,34.49,10.38,28.65,10.38,28.65Z" fill="#fff"/>
    <path d="M10.38,28.65A7.78,7.78,0,0,1,14,19.3c4.61-2.83,6.55,2.31,8,2.58.9,1.74,2.66,9-4.43,11.28C12.48,34.49,10.38,28.65,10.38,28.65Z" fill="#fff"/>
    <path d="M22,22a5.83,5.83,0,0,0-3.15-2.8c-3.24-1.1-7,.94-8.2,4.59a7.54,7.54,0,0,0,1.67,7.74c2.35,2.28,6.05,1.89,8-1.29a6.73,6.73,0,0,0,0-6.93,4.11,4.11,0,0,0-6.51-.72,5.33,5.33,0,0,0-.44,6.78,3.07,3.07,0,0,0,4.83-.08,3.72,3.72,0,0,0,.52-4.14c-.68-1.15-1.8-1.79-3-1.11a2.77,2.77,0,0,0-1.17,1.67c-.31,1.33.65,2.63,1.66,2,0,0,.44-.67,0-1.16" fill="none" stroke="#1f0a56" stroke-miterlimit="10"/>
  </g>
</svg>
