<svg xmlns="http://www.w3.org/2000/svg" xmlns:xlink="http://www.w3.org/1999/xlink" viewBox="0 0 64 64">
  <defs>
    <linearGradient id="a" x1="32.3" y1="51.74" x2="32.3" y2="15.57" gradientUnits="userSpaceOnUse">
      <stop offset="0.39" stop-color="#591c89"/>
      <stop offset="1" stop-color="#8350a4"/>
    </linearGradient>
  </defs>
  <g>
    <path d="M13,45.82c1.14.21,1.1-.62,1.44-1.38.5-1.13,2.1-1.67,2.67-.85a1.4,1.4,0,0,1,.18,1c-.13,1.45-1.56,3.14-1,4.61.87,2.3,3.32,1.32,3.3-1,0-1.36-1.34-5.57.3-6.29.85-.14,1.3.07,1.51.48.71,1.39-1.4,5.13.2,5.45,2.06.4.88-2.49,2.74-3,.17,0-.08-1,.52-1.06.28,0,.53.31.68.59a3.34,3.34,0,0,1,.1,2.12c-.17,1.4-.27,2.78,1.58,2.7,2.13-.09,1.08-2.06,1.3-3.37,0-.16.06-.39.22-.48s.13,0,.29.1.19.5.53.25.12-1.47.42-1.59,1,1,1.08,1.22,1,3.11,1.29,3a.52.52,0,0,0,.34-.26c.53-.74-.54-1.94,0-2.77a1.55,1.55,0,0,1,2.32,0c.44.73-.24,2-.29,2.81,1.12.34.74-1.48.7-2s-.43-1.62.33-2a4.29,4.29,0,0,1,2-.23c.73.18.1.84.5,1.25.16.17.69.33.86.1s-.07-.51-.08-.69c0-.66.38-2,.79-.74a5.18,5.18,0,0,1,0,3c-.33,1.18-1,2.69-.5,4a1.54,1.54,0,0,0,1.87.88,2.32,2.32,0,0,0,1.58-1.08c.62-1.16,0-2.6-.3-3.71-.26-1-.41-3.32,1-3.32s.32.89.32,1.5c0,1.11,1.45.3,1.68-.23s-.29-1.65.16-2,1.41.09,1.69.51c.48.72,0,1.61-.18,2.31-.24,1.12-.12,3.86,1.71,3.55.68-.11.9-1.33.81-2.08-.12-1-.89-.91-1.16-1.85s-.34-4.53.46-5.1c.54.4.65,3.21,1.74,2.1l.11-.12c.54-.73.14-1.86.11-2.74a8.07,8.07,0,0,1,.67-2.67,8.14,8.14,0,0,0,.27-.93c.26-1.19-.17-3-.17-4.34,0-.22,0-.45,0-.68a10.24,10.24,0,0,0,.14-3.58,11,11,0,0,0-3.38-6.41c-3.56-3.49-9.5-5.54-16.05-5.21-.64,0-1.28.09-1.93.16a28.32,28.32,0,0,0-4.56,1,23.32,23.32,0,0,0-6.62,3.15,19.78,19.78,0,0,0-1.66,1.29A13.23,13.23,0,0,0,13,29a10.36,10.36,0,0,0,0,2.89,11.25,11.25,0,0,0,.35,1.55.14.14,0,0,0,0,.06c0,.45.07.84.09,1a17.41,17.41,0,0,1,.33,2.8c0,.29,0,.58,0,.87a14.44,14.44,0,0,0-.06,1.61,7.4,7.4,0,0,1-.35,3.2C12.88,43.92,12.36,44.8,13,45.82Z" fill="url(#a)"/>
    <path d="M24.28,20.66A9.92,9.92,0,0,1,29.94,9c6.28-3.08,10.92,4.28,10.92,4.28s4.41,11.53-7,14.31C26.91,27.18,24.28,20.66,24.28,20.66Z" fill="#fff"/>
    <path d="M24.28,20.66A9.92,9.92,0,0,1,29.94,9c6.28-3.08,10.92,4.28,10.92,4.28s4.41,11.53-7,14.31C26.91,27.18,24.28,20.66,24.28,20.66Z" fill="#fff"/>
    <path d="M8.5,26.48a7.79,7.79,0,0,1,3.65-9.35c4.62-2.83,6.55,2.3,8,2.58.89,1.73,2.66,9-4.44,11.28C10.6,32.32,8.5,26.48,8.5,26.48Z" fill="#fff"/>
    <path d="M8.5,26.48a7.79,7.79,0,0,1,3.65-9.35c4.62-2.83,6.55,2.3,8,2.58.89,1.73,2.66,9-4.44,11.28C10.6,32.32,8.5,26.48,8.5,26.48Z" fill="#fff"/>
    <path d="M32.5,18.6a1.31,1.31,0,0,1,.14,1.53c-1.31,1-2.88-.61-2.65-2.39a3.45,3.45,0,0,1,1.4-2.34c1.52-1,3.2-.31,4.35,1.13a4.64,4.64,0,0,1-.08,5.52c-1.8,2.38-4.63,2.43-6.82.65a6.73,6.73,0,0,1-.45-9,6.13,6.13,0,0,1,9.33.23,8.52,8.52,0,0,1,1.07,9.16,7.44,7.44,0,0,1-3.51,3.48,7,7,0,0,1-1.48.5,7.77,7.77,0,0,1-6.09-1.39,9.68,9.68,0,0,1-1.07-1,9.89,9.89,0,0,1-2.51-9.08A9.21,9.21,0,0,1,35,8.66c2.62.59,4.39,2.42,5.83,4.64" fill="none" stroke="#5c208b" stroke-miterlimit="10" stroke-width="1.2"/>
    <path d="M20.17,19.78A5.85,5.85,0,0,0,17,17c-3.24-1.11-7,.94-8.2,4.59a7.59,7.59,0,0,0,1.67,7.74c2.36,2.27,6.06,1.88,8-1.29a6.77,6.77,0,0,0,0-6.94A4.13,4.13,0,0,0,12,20.36a5.34,5.34,0,0,0-.44,6.78,3.06,3.06,0,0,0,4.83-.08,3.71,3.71,0,0,0,.52-4.13c-.68-1.15-1.8-1.79-3-1.11a2.74,2.74,0,0,0-1.18,1.67c-.31,1.33.65,2.63,1.66,2,0,0,.44-.66,0-1.15" fill="none" stroke="#5c208b" stroke-miterlimit="10"/>
    <path d="M39.94,33.18a23.88,23.88,0,0,0-9.68-2.79h-.12a23.72,23.72,0,0,0-9.95,1.56c-1.44.61-2.34,1.37-1.73,2.71.3.72,1.1,1.66,1.92,1.61,1.62-.19,1.53-1.19,7.53-1.23s8.42,1.78,10,2.17C38.73,37.35,44.2,36.6,39.94,33.18Z" fill="#2e0067"/>
    <path d="M39.94,33.18a23.88,23.88,0,0,0-9.68-2.79h-.12a23.72,23.72,0,0,0-9.95,1.56c-1.44.61-2.34,1.37-1.73,2.71.3.72,1.1,1.66,1.92,1.61,1.62-.19,1.53-1.19,7.53-1.23s8.42,1.78,10,2.17C38.73,37.35,44.2,36.6,39.94,33.18Z" fill="#1f0a56"/>
  </g>
</svg>
