<svg xmlns="http://www.w3.org/2000/svg" xmlns:xlink="http://www.w3.org/1999/xlink" width="61" height="61" viewBox="0 0 61 61">
  <defs>
    <radialGradient id="radial-gradient" cx="0.5" cy="0.5" r="0.631" gradientTransform="matrix(1, 0, 0, 1.084, 0, -0.042)" gradientUnits="objectBoundingBox">
      <stop offset="0" stop-color="#8350a4"/>
      <stop offset="0" stop-color="#cba3db"/>
      <stop offset="1" stop-color="#46146e"/>
    </radialGradient>
  </defs>
  <g id="Group_453" data-name="Group 453" transform="translate(-1123 -454)">
    <circle id="Ellipse_197" data-name="Ellipse 197" cx="30.5" cy="30.5" r="30.5" transform="translate(1123 454)" fill="#fff" opacity="0"/>
    <g id="Group_452" data-name="Group 452">
      <g id="Group_451" data-name="Group 451" transform="translate(1121.434 451.476)">
        <path id="Path_56" data-name="Path 56" d="M12.889,46.052c1.14.208,1.1-.618,1.44-1.373.5-1.131,2.1-1.677,2.668-.855a1.449,1.449,0,0,1,.186.974c-.135,1.445-1.567,3.133-1.01,4.606.868,2.3,3.321,1.317,3.293-1.042-.015-1.353-1.337-5.565.305-6.286.851-.138,1.3.069,1.506.475.715,1.391-1.4,5.135.2,5.45,2.066.406.889-2.482,2.746-2.949.169-.042-.083-1.028.516-1.054.278-.014.531.31.685.585a3.339,3.339,0,0,1,.1,2.12c-.174,1.4-.268,2.778,1.579,2.7,2.133-.091,1.075-2.064,1.3-3.373.03-.157.06-.385.221-.476.288-.163.123-.034.286.1.215.172.191.5.525.251.38-.294.124-1.469.42-1.59.366-.149.978,1,1.089,1.223.131.28.985,3.111,1.29,3.041a.553.553,0,0,0,.337-.257c.529-.749-.544-1.944.032-2.772a1.545,1.545,0,0,1,2.318.024c.439.732-.24,2.047-.289,2.818,1.117.333.737-1.485.7-2.045-.043-.638-.429-1.624.328-2.006a4.391,4.391,0,0,1,1.955-.236c.73.185.1.841.494,1.256.168.171.7.331.865.094.112-.159-.069-.507-.08-.685-.035-.667.381-1.979.792-.743a5.224,5.224,0,0,1-.029,3.018c-.33,1.186-.983,2.693-.5,4.01a1.536,1.536,0,0,0,1.873.881A2.306,2.306,0,0,0,42.6,50.854c.618-1.158-.011-2.6-.3-3.706-.253-.959-.411-3.319,1.04-3.319s.326.89.326,1.5c0,1.1,1.446.3,1.674-.23s-.292-1.657.158-2.027c.47-.384,1.414.092,1.694.512.477.719-.029,1.615-.176,2.308-.242,1.126-.127,3.867,1.708,3.557.68-.114.9-1.332.81-2.082-.119-1.02-.893-.911-1.157-1.85s-.341-4.526.46-5.1c.541.4.646,3.216,1.737,2.1a1.387,1.387,0,0,0,.1-.123c.546-.723.147-1.861.118-2.733a7.77,7.77,0,0,1,.671-2.676,8.717,8.717,0,0,0,.268-.932c.256-1.184-.178-3.049-.178-4.339,0-.219,0-.445.014-.676a10.15,10.15,0,0,0,.145-3.586,11.1,11.1,0,0,0-3.384-6.408c-3.564-3.488-9.5-5.537-16.052-5.207-.635.033-1.279.088-1.926.164a27.167,27.167,0,0,0-4.564.948,23.342,23.342,0,0,0-6.616,3.143,19.117,19.117,0,0,0-1.662,1.3,13.24,13.24,0,0,0-4.65,7.848,10.048,10.048,0,0,0-.015,2.888,10.265,10.265,0,0,0,.345,1.55.328.328,0,0,0,.018.058c.039.454.072.847.094.981a17.789,17.789,0,0,1,.331,2.8c.005.293-.009.583-.025.871a15.691,15.691,0,0,0-.058,1.608,7.309,7.309,0,0,1-.349,3.2C12.789,44.153,12.27,45.036,12.889,46.052Z" fill="url(#radial-gradient)"/>
        <path id="Path_57" data-name="Path 57" d="M12.889,46.052c1.14.208,1.1-.618,1.44-1.373.5-1.131,2.1-1.677,2.668-.855a1.449,1.449,0,0,1,.186.974c-.135,1.445-1.567,3.133-1.01,4.606.868,2.3,3.321,1.317,3.293-1.042-.015-1.353-1.337-5.565.305-6.286.851-.138,1.3.069,1.506.475.715,1.391-1.4,5.135.2,5.45,2.066.406.889-2.482,2.746-2.949.169-.042-.083-1.028.516-1.054.278-.014.531.31.685.585a3.339,3.339,0,0,1,.1,2.12c-.174,1.4-.268,2.778,1.579,2.7,2.133-.091,1.075-2.064,1.3-3.373.03-.157.06-.385.221-.476.288-.163.123-.034.286.1.215.172.191.5.525.251.38-.294.124-1.469.42-1.59.366-.149.978,1,1.089,1.223.131.28.985,3.111,1.29,3.041a.553.553,0,0,0,.337-.257c.529-.749-.544-1.944.032-2.772a1.545,1.545,0,0,1,2.318.024c.439.732-.24,2.047-.289,2.818,1.117.333.737-1.485.7-2.045-.043-.638-.429-1.624.328-2.006a4.391,4.391,0,0,1,1.955-.236c.73.185.1.841.494,1.256.168.171.7.331.865.094.112-.159-.069-.507-.08-.685-.035-.667.381-1.979.792-.743a5.224,5.224,0,0,1-.029,3.018c-.33,1.186-.983,2.693-.5,4.01a1.536,1.536,0,0,0,1.873.881A2.306,2.306,0,0,0,42.6,50.854c.618-1.158-.011-2.6-.3-3.706-.253-.959-.411-3.319,1.04-3.319s.326.89.326,1.5c0,1.1,1.446.3,1.674-.23s-.292-1.657.158-2.027c.47-.384,1.414.092,1.694.512.477.719-.029,1.615-.176,2.308-.242,1.126-.127,3.867,1.708,3.557.68-.114.9-1.332.81-2.082-.119-1.02-.893-.911-1.157-1.85s-.341-4.526.46-5.1c.541.4.646,3.216,1.737,2.1a1.387,1.387,0,0,0,.1-.123c.546-.723.147-1.861.118-2.733a7.77,7.77,0,0,1,.671-2.676,8.717,8.717,0,0,0,.268-.932c.256-1.184-.178-3.049-.178-4.339,0-.219,0-.445.014-.676a10.15,10.15,0,0,0,.145-3.586,11.1,11.1,0,0,0-3.384-6.408c-3.564-3.488-9.5-5.537-16.052-5.207-.635.033-1.279.088-1.926.164a27.167,27.167,0,0,0-4.564.948,23.342,23.342,0,0,0-6.616,3.143,19.117,19.117,0,0,0-1.662,1.3,13.24,13.24,0,0,0-4.65,7.848,10.048,10.048,0,0,0-.015,2.888,10.265,10.265,0,0,0,.345,1.55.328.328,0,0,0,.018.058c.039.454.072.847.094.981a17.789,17.789,0,0,1,.331,2.8c.005.293-.009.583-.025.871a15.691,15.691,0,0,0-.058,1.608,7.309,7.309,0,0,1-.349,3.2C12.789,44.153,12.27,45.036,12.889,46.052Z" fill="none" stroke="#6c26b1" stroke-miterlimit="10" stroke-width="0.5"/>
        <path id="Path_58" data-name="Path 58" d="M25.943,23.244A9.921,9.921,0,0,1,31.6,11.594c6.281-3.077,10.915,4.278,10.915,4.278S46.931,27.4,35.492,30.181C28.575,29.758,25.943,23.244,25.943,23.244Z" fill="#fff"/>
        <path id="Path_59" data-name="Path 59" d="M26.047,23.176a9.923,9.923,0,0,1,5.662-11.651C37.99,8.448,42.624,15.8,42.624,15.8S47.035,27.332,35.6,30.112C28.679,29.69,26.047,23.176,26.047,23.176Z" fill="#fff"/>
        <g id="Group_449" data-name="Group 449">
          <path id="Path_60" data-name="Path 60" d="M34,30.294a8.493,8.493,0,0,1-4.924-1.633,10.325,10.325,0,0,1-3.772-10.545,9.771,9.771,0,0,1,11.469-7.364,8.378,8.378,0,0,1,5.8,5.051l-.046-.022c-2.157-2.339-3.835-3.57-5.98-4.054a8.763,8.763,0,0,0-10.272,6.61,9.406,9.406,0,0,0,2.385,8.621,9.214,9.214,0,0,0,1.009.9,7.333,7.333,0,0,0,5.688,1.293,6.54,6.54,0,0,0,1.375-.461,6.96,6.96,0,0,0,3.269-3.25,7.974,7.974,0,0,0-1-8.617A5.98,5.98,0,0,0,34.55,14.73h-.017a5.421,5.421,0,0,0-4.1,1.878,6.208,6.208,0,0,0,.425,8.317A4.513,4.513,0,0,0,34.2,26a4.013,4.013,0,0,0,2.723-1.667A4.167,4.167,0,0,0,37,19.4c-.865-1.082-2.3-1.933-3.665-1.009a2.952,2.952,0,0,0-1.183,1.993A2.073,2.073,0,0,0,33,22.4a.831.831,0,0,0,.916-.013.733.733,0,0,0-.084-.826.562.562,0,0,1,.078-.712.411.411,0,0,1,.592-.031,1.763,1.763,0,0,1,.246,2.146l-.133.154a1.837,1.837,0,0,1-2.116.148,3.045,3.045,0,0,1-1.337-3.007,3.941,3.941,0,0,1,1.616-2.689c1.591-1.075,3.564-.591,5.023,1.237a5.169,5.169,0,0,1-.075,6.136A4.992,4.992,0,0,1,34.321,27a5.545,5.545,0,0,1-4.129-1.326,7.224,7.224,0,0,1-.519-9.712,6.418,6.418,0,0,1,4.859-2.228h.021a6.983,6.983,0,0,1,5.208,2.438,8.965,8.965,0,0,1,1.149,9.7A7.964,7.964,0,0,1,37.16,29.6a7.566,7.566,0,0,1-1.586.532A7.466,7.466,0,0,1,34,30.294Z" fill="#1f0a56"/>
        </g>
        <path id="Path_61" data-name="Path 61" d="M10.168,29.059a7.785,7.785,0,0,1,3.649-9.351c4.614-2.83,6.552,2.307,8.043,2.583.894,1.734,2.66,9.009-4.435,11.278C12.263,34.9,10.168,29.059,10.168,29.059Z" fill="#fff"/>
        <path id="Path_62" data-name="Path 62" d="M10.168,29.059a7.785,7.785,0,0,1,3.649-9.351c4.614-2.83,7.4,1.453,8.043,2.583.894,1.734,2.66,9.009-4.435,11.278C12.263,34.9,10.168,29.059,10.168,29.059Z" fill="#fff"/>
        <g id="Group_450" data-name="Group 450">
          <path id="Path_63" data-name="Path 63" d="M15.623,33.837A5.518,5.518,0,0,1,11.8,32.251,8.064,8.064,0,0,1,10,24a7.808,7.808,0,0,1,3.877-4.523,6.423,6.423,0,0,1,4.956-.39,4.874,4.874,0,0,1,3.037,3.187V22.3a5.966,5.966,0,0,0-3.428-2.475,6.274,6.274,0,0,0-4.121.55,6.8,6.8,0,0,0-3.371,3.94A7.069,7.069,0,0,0,12.5,31.539,4.47,4.47,0,0,0,16.17,32.8a4.88,4.88,0,0,0,3.521-2.456,6.22,6.22,0,0,0,.029-6.411,3.818,3.818,0,0,0-2.763-1.753A3.647,3.647,0,0,0,13.98,23.3a4.817,4.817,0,0,0-.4,6.118,2.813,2.813,0,0,0,2.06.944,2.739,2.739,0,0,0,1.994-1.046,3.227,3.227,0,0,0,.456-3.578c-.221-.369-1.08-1.6-2.257-.909a2.233,2.233,0,0,0-.942,1.358,1.435,1.435,0,0,0,.389,1.445.377.377,0,0,0,.41.032c.056-.12.131-.338.018-.471a.523.523,0,0,1,.17-.63.494.494,0,0,1,.592-.018,1.485,1.485,0,0,1,.01,1.756l-.138.139a1.408,1.408,0,0,1-1.631.014,2.425,2.425,0,0,1-.793-2.5,3.232,3.232,0,0,1,1.406-1.986c1.293-.762,2.721-.258,3.639,1.282a4.241,4.241,0,0,1-.575,4.722,3.707,3.707,0,0,1-2.728,1.388,3.825,3.825,0,0,1-2.839-1.293,5.848,5.848,0,0,1,.442-7.467,4.666,4.666,0,0,1,3.8-1.416,4.816,4.816,0,0,1,3.5,2.2,7.21,7.21,0,0,1,0,7.455A5.87,5.87,0,0,1,16.3,33.793,5.126,5.126,0,0,1,15.623,33.837Z" fill="#1f0a56"/>
        </g>
        <path id="Path_64" data-name="Path 64" d="M29.638,32.995c6.889,0,9.208,5.144,9.917,7.55.072.777-.614.686-.881.533a11.635,11.635,0,0,0-2.407-1.05,25.91,25.91,0,0,0-6.629-1,29.4,29.4,0,0,0-6.176.635,9.362,9.362,0,0,0-2.615,1.087c-.257.161-.994.253-.73-.647C20.729,37.787,22.819,32.995,29.638,32.995Z" fill="#0a0728"/>
      </g>
    </g>
  </g>
</svg>
