<svg xmlns="http://www.w3.org/2000/svg" xmlns:xlink="http://www.w3.org/1999/xlink" viewBox="0 0 64 64">
  <defs>
    <radialGradient id="a" cx="32.21" cy="33.89" r="18.86" gradientUnits="userSpaceOnUse">
      <stop offset="0" stop-color="#8350a4"/>
      <stop offset="0" stop-color="#9863ae"/>
      <stop offset="0.21" stop-color="#945fab"/>
      <stop offset="0.44" stop-color="#8652a0"/>
      <stop offset="0.67" stop-color="#713d8f"/>
      <stop offset="0.92" stop-color="#522078"/>
      <stop offset="1" stop-color="#46146e"/>
    </radialGradient>
  </defs>
  <path d="M12.89,46.05c1.14.21,1.1-.62,1.44-1.37.5-1.13,2.1-1.68,2.67-.86a1.42,1.42,0,0,1,.18,1c-.13,1.44-1.56,3.13-1,4.6.87,2.3,3.32,1.32,3.3-1,0-1.35-1.34-5.56.3-6.28.85-.14,1.3.06,1.51.47.71,1.39-1.4,5.14.2,5.45,2.06.41.88-2.48,2.74-3,.17,0-.08-1,.52-1,.27,0,.53.31.68.58a3.34,3.34,0,0,1,.1,2.12c-.17,1.4-.27,2.78,1.58,2.7,2.13-.09,1.07-2.06,1.3-3.37,0-.16.06-.38.22-.47s.13,0,.29.09.19.51.52.25.13-1.47.42-1.59,1,1,1.09,1.23,1,3.11,1.29,3a.56.56,0,0,0,.34-.26c.53-.75-.54-1.94,0-2.77a1.54,1.54,0,0,1,2.32,0c.44.73-.24,2-.29,2.82,1.12.33.74-1.49.7-2s-.43-1.62.33-2a4.43,4.43,0,0,1,2-.24c.73.19.1.84.5,1.26.16.17.69.33.86.09s-.07-.5-.08-.68c0-.67.38-2,.79-.75a5.18,5.18,0,0,1,0,3c-.33,1.19-1,2.7-.5,4a1.52,1.52,0,0,0,1.87.88,2.31,2.31,0,0,0,1.58-1.08c.62-1.15,0-2.59-.3-3.7s-.41-3.32,1-3.32.32.89.32,1.5c0,1.1,1.45.3,1.68-.23s-.3-1.66.15-2,1.42.09,1.7.51c.47.72,0,1.62-.18,2.31-.24,1.13-.12,3.87,1.71,3.56.68-.12.9-1.34.81-2.08-.12-1-.89-.92-1.16-1.85S48,41,48.83,40.41c.54.4.65,3.22,1.74,2.1a.65.65,0,0,0,.11-.12c.54-.72.14-1.86.11-2.73A7.89,7.89,0,0,1,51.46,37a7.11,7.11,0,0,0,.27-.93c.26-1.18-.18-3-.18-4.34,0-.22,0-.44,0-.67a10.3,10.3,0,0,0,.14-3.59A11.1,11.1,0,0,0,48.33,21c-3.57-3.49-9.5-5.53-16-5.2-.64,0-1.28.08-1.93.16a26.31,26.31,0,0,0-4.56.95,23,23,0,0,0-6.62,3.14,19.86,19.86,0,0,0-1.66,1.3,13.2,13.2,0,0,0-4.65,7.85,10.28,10.28,0,0,0,0,2.88,11.25,11.25,0,0,0,.35,1.55.14.14,0,0,0,0,.06c0,.46.07.85.09,1a17.68,17.68,0,0,1,.33,2.8c0,.3,0,.59,0,.87A14.44,14.44,0,0,0,13.55,40a7.36,7.36,0,0,1-.35,3.2C12.79,44.15,12.27,45,12.89,46.05Z" fill="url(#a)"/>
  <path d="M12.89,46.05c1.14.21,1.1-.62,1.44-1.37.5-1.13,2.1-1.68,2.67-.86a1.42,1.42,0,0,1,.18,1c-.13,1.44-1.56,3.13-1,4.6.87,2.3,3.32,1.32,3.3-1,0-1.35-1.34-5.56.3-6.28.85-.14,1.3.06,1.51.47.71,1.39-1.4,5.14.2,5.45,2.06.41.88-2.48,2.74-3,.17,0-.08-1,.52-1,.27,0,.53.31.68.58a3.34,3.34,0,0,1,.1,2.12c-.17,1.4-.27,2.78,1.58,2.7,2.13-.09,1.07-2.06,1.3-3.37,0-.16.06-.38.22-.47s.13,0,.29.09.19.51.52.25.13-1.47.42-1.59,1,1,1.09,1.23,1,3.11,1.29,3a.56.56,0,0,0,.34-.26c.53-.75-.54-1.94,0-2.77a1.54,1.54,0,0,1,2.32,0c.44.73-.24,2-.29,2.82,1.12.33.74-1.49.7-2s-.43-1.62.33-2a4.43,4.43,0,0,1,2-.24c.73.19.1.84.5,1.26.16.17.69.33.86.09s-.07-.5-.08-.68c0-.67.38-2,.79-.75a5.18,5.18,0,0,1,0,3c-.33,1.19-1,2.7-.5,4a1.52,1.52,0,0,0,1.87.88,2.31,2.31,0,0,0,1.58-1.08c.62-1.15,0-2.59-.3-3.7s-.41-3.32,1-3.32.32.89.32,1.5c0,1.1,1.45.3,1.68-.23s-.3-1.66.15-2,1.42.09,1.7.51c.47.72,0,1.62-.18,2.31-.24,1.13-.12,3.87,1.71,3.56.68-.12.9-1.34.81-2.08-.12-1-.89-.92-1.16-1.85S48,41,48.83,40.41c.54.4.65,3.22,1.74,2.1a.65.65,0,0,0,.11-.12c.54-.72.14-1.86.11-2.73A7.89,7.89,0,0,1,51.46,37a7.11,7.11,0,0,0,.27-.93c.26-1.18-.18-3-.18-4.34,0-.22,0-.44,0-.67a10.3,10.3,0,0,0,.14-3.59A11.1,11.1,0,0,0,48.33,21c-3.57-3.49-9.5-5.53-16-5.2-.64,0-1.28.08-1.93.16a26.31,26.31,0,0,0-4.56.95,23,23,0,0,0-6.62,3.14,19.86,19.86,0,0,0-1.66,1.3,13.2,13.2,0,0,0-4.65,7.85,10.28,10.28,0,0,0,0,2.88,11.25,11.25,0,0,0,.35,1.55.14.14,0,0,0,0,.06c0,.46.07.85.09,1a17.68,17.68,0,0,1,.33,2.8c0,.3,0,.59,0,.87A14.44,14.44,0,0,0,13.55,40a7.36,7.36,0,0,1-.35,3.2C12.79,44.15,12.27,45,12.89,46.05Z" fill="none" stroke="#3a096d" stroke-miterlimit="10" stroke-width="0.5"/>
  <path d="M25.94,23.24A9.92,9.92,0,0,1,31.6,11.59c6.29-3.07,10.92,4.28,10.92,4.28s4.41,11.53-7,14.31C28.57,29.76,25.94,23.24,25.94,23.24Z" fill="#fff"/>
  <path d="M26.05,23.18a9.92,9.92,0,0,1,5.66-11.65C38,8.45,42.62,15.8,42.62,15.8s4.41,11.53-7,14.31C28.68,29.69,26.05,23.18,26.05,23.18Z" fill="#fff"/>
  <path d="M34,30.29a8.48,8.48,0,0,1-4.92-1.63,10.13,10.13,0,0,1-1.13-1,10.38,10.38,0,0,1-2.64-9.53,9.77,9.77,0,0,1,11.47-7.37,8.38,8.38,0,0,1,5.8,5.05l0,0c-2.15-2.34-3.83-3.57-6-4a8.76,8.76,0,0,0-10.27,6.61A9.42,9.42,0,0,0,28.67,27a8.65,8.65,0,0,0,1,.9,7.36,7.36,0,0,0,5.69,1.29,6.58,6.58,0,0,0,1.38-.46A7,7,0,0,0,40,25.44a8,8,0,0,0-1-8.62,6,6,0,0,0-4.45-2.09h0a5.44,5.44,0,0,0-4.1,1.88,6.21,6.21,0,0,0,.43,8.32A4.53,4.53,0,0,0,34.2,26a4,4,0,0,0,2.72-1.66A4.19,4.19,0,0,0,37,19.4c-.87-1.08-2.3-1.93-3.67-1a3,3,0,0,0-1.18,2,2.06,2.06,0,0,0,.85,2,.8.8,0,0,0,.91,0,.72.72,0,0,0-.08-.82.58.58,0,0,1,.08-.72.41.41,0,0,1,.59,0A1.76,1.76,0,0,1,34.74,23l-.13.15a1.82,1.82,0,0,1-2.11.15,3,3,0,0,1-1.34-3,3.94,3.94,0,0,1,1.61-2.69c1.6-1.07,3.57-.59,5,1.24a5.18,5.18,0,0,1-.08,6.14A5,5,0,0,1,34.32,27a5.61,5.61,0,0,1-4.13-1.33A7.22,7.22,0,0,1,29.67,16a6.44,6.44,0,0,1,4.86-2.23h0a7,7,0,0,1,5.21,2.44,9,9,0,0,1,1.15,9.7,8,8,0,0,1-3.75,3.73,7.81,7.81,0,0,1-1.59.53A7.47,7.47,0,0,1,34,30.29Z" fill="#1f0a56"/>
  <path d="M10.17,29.06a7.78,7.78,0,0,1,3.65-9.35c4.61-2.83,6.55,2.3,8,2.58.89,1.74,2.66,9-4.43,11.28C12.26,34.9,10.17,29.06,10.17,29.06Z" fill="#fff"/>
  <path d="M10.17,29.06a7.78,7.78,0,0,1,3.65-9.35c4.61-2.83,7.39,1.45,8,2.58.89,1.74,2.66,9-4.43,11.28C12.26,34.9,10.17,29.06,10.17,29.06Z" fill="#fff"/>
  <path d="M15.62,33.84a5.5,5.5,0,0,1-3.82-1.59A8.06,8.06,0,0,1,10,24a7.84,7.84,0,0,1,3.88-4.52,6.38,6.38,0,0,1,5-.39,4.87,4.87,0,0,1,3,3.18v0a6,6,0,0,0-3.42-2.48,6.31,6.31,0,0,0-4.13.55A6.83,6.83,0,0,0,11,24.31a7.09,7.09,0,0,0,1.55,7.23,4.47,4.47,0,0,0,3.67,1.26,4.89,4.89,0,0,0,3.52-2.45,6.22,6.22,0,0,0,0-6.41A3.85,3.85,0,0,0,17,22.18a3.66,3.66,0,0,0-3,1.12,4.82,4.82,0,0,0-.4,6.12,2.81,2.81,0,0,0,2.06.94,2.74,2.74,0,0,0,2-1,3.23,3.23,0,0,0,.45-3.58c-.22-.37-1.08-1.6-2.25-.91a2.24,2.24,0,0,0-.95,1.36,1.42,1.42,0,0,0,.39,1.44.38.38,0,0,0,.41,0,.48.48,0,0,0,0-.48.52.52,0,0,1,.17-.63.5.5,0,0,1,.59,0,1.48,1.48,0,0,1,0,1.75l-.14.14a1.41,1.41,0,0,1-1.63,0,2.42,2.42,0,0,1-.79-2.5,3.25,3.25,0,0,1,1.41-2c1.29-.76,2.72-.26,3.63,1.28A4.24,4.24,0,0,1,18.39,30a3.7,3.7,0,0,1-2.73,1.39,3.8,3.8,0,0,1-2.84-1.29,5.87,5.87,0,0,1,.44-7.47,4.68,4.68,0,0,1,3.8-1.41,4.81,4.81,0,0,1,3.5,2.2,7.21,7.21,0,0,1,0,7.45,5.85,5.85,0,0,1-4.26,2.95A5.19,5.19,0,0,1,15.62,33.84Z" fill="#1f0a56"/>
  <path d="M29.64,33a9.88,9.88,0,0,1,9.91,7.54c.08.78-.61.69-.88.54a11.39,11.39,0,0,0-2.4-1,25.72,25.72,0,0,0-6.63-1,29.79,29.79,0,0,0-6.18.63,9.63,9.63,0,0,0-2.61,1.09c-.26.16-1,.25-.73-.65C20.73,37.79,22.82,33,29.64,33Z" fill="#0a0728"/>
</svg>
