<svg xmlns="http://www.w3.org/2000/svg" xmlns:xlink="http://www.w3.org/1999/xlink" viewBox="0 0 64 64">
  <defs>
    <linearGradient id="a" x1="750.91" y1="342.41" x2="750.91" y2="356.57" gradientTransform="matrix(-0.71, -0.71, -0.71, 0.71, 796.11, 329.35)" gradientUnits="userSpaceOnUse">
      <stop offset="0.01" stop-color="#8a8a8a"/>
      <stop offset="0.61" stop-color="#e3e3e3"/>
      <stop offset="0.71" stop-color="#dcdcdc"/>
      <stop offset="0.85" stop-color="#cacaca"/>
      <stop offset="0.98" stop-color="#b0b0b0"/>
    </linearGradient>
    <linearGradient id="b" x1="95.75" y1="-388.19" x2="95.75" y2="-374.03" gradientTransform="matrix(0.71, 0.71, 0.71, -0.71, 247.77, -319.19)" gradientUnits="userSpaceOnUse">
      <stop offset="0.01" stop-color="#8a8a8a"/>
      <stop offset="0.27" stop-color="#909090"/>
      <stop offset="0.62" stop-color="#e3e3e3"/>
      <stop offset="0.71" stop-color="#dcdcdc"/>
      <stop offset="0.85" stop-color="#cacaca"/>
      <stop offset="0.98" stop-color="#b0b0b0"/>
    </linearGradient>
    <linearGradient id="c" x1="81.7" y1="-326.09" x2="81.7" y2="-311.93" gradientTransform="translate(213.79 329.35) rotate(-45)" xlink:href="#a"/>
    <linearGradient id="d" x1="764.67" y1="280.6" x2="764.67" y2="294.76" gradientTransform="translate(762.13 -319.19) rotate(135)" xlink:href="#b"/>
    <radialGradient id="e" cx="32" cy="32.56" r="16.89" gradientTransform="translate(0.79 -9.05) rotate(1.09) scale(1 1.26)" gradientUnits="userSpaceOnUse">
      <stop offset="0.02" stop-color="#fff"/>
      <stop offset="0.27" stop-color="#fcfcfc"/>
      <stop offset="0.44" stop-color="#f4f4f4"/>
      <stop offset="0.57" stop-color="#e5e5e5"/>
      <stop offset="0.69" stop-color="#d0d0d0"/>
      <stop offset="0.81" stop-color="#b5b5b5"/>
      <stop offset="0.91" stop-color="#949494"/>
      <stop offset="0.98" stop-color="#787878"/>
    </radialGradient>
    <linearGradient id="f" x1="32" y1="43.82" x2="32" y2="40.52" gradientUnits="userSpaceOnUse">
      <stop offset="0" stop-color="#999"/>
      <stop offset="0.06" stop-color="#8b8b8b"/>
      <stop offset="0.28" stop-color="#5a5a5a"/>
      <stop offset="0.49" stop-color="#333"/>
      <stop offset="0.69" stop-color="#171717"/>
      <stop offset="0.86" stop-color="#060606"/>
      <stop offset="0.98"/>
    </linearGradient>
    <linearGradient id="g" x1="32" y1="50.97" x2="32" y2="48.55" gradientUnits="userSpaceOnUse">
      <stop offset="0" stop-color="#575757"/>
      <stop offset="0.28" stop-color="#333"/>
      <stop offset="0.56" stop-color="#171717"/>
      <stop offset="0.8" stop-color="#060606"/>
      <stop offset="0.98"/>
    </linearGradient>
    <linearGradient id="h" x1="34.01" y1="50.88" x2="34.01" y2="48.46" xlink:href="#g"/>
    <linearGradient id="i" x1="29.99" y1="50.88" x2="29.99" y2="48.46" xlink:href="#g"/>
    <linearGradient id="j" x1="27.97" y1="50.57" x2="27.97" y2="48.16" xlink:href="#g"/>
    <linearGradient id="k" x1="25.96" y1="50" x2="25.96" y2="47.59" xlink:href="#g"/>
    <linearGradient id="l" x1="36.03" y1="50.53" x2="36.03" y2="48.11" xlink:href="#g"/>
    <linearGradient id="m" x1="38.04" y1="49.87" x2="38.04" y2="47.45" xlink:href="#g"/>
    <clipPath id="n">
      <path d="M19.47,36.13S18,31.59,23,29.35c3.95-1.79,6.87,2.49,6.87,2.49s2.77,6.7-4.43,8.32A7.22,7.22,0,0,1,19.47,36.13Z" fill="none"/>
    </clipPath>
    <clipPath id="o">
      <path d="M34.13,36.13s-1.45-4.54,3.56-6.78c4-1.79,6.87,2.49,6.87,2.49s2.77,6.7-4.42,8.32A7.22,7.22,0,0,1,34.13,36.13Z" fill="none"/>
    </clipPath>
  </defs>
  <g>
    <path d="M17.74,42.7l3.42-3.18,1.37.82.16-.17.24.41.41.24-.17.15L24,42.34l-3.17,3.42s.17,5.83-1.07,6.8-5,2.72-5.64-3.16C8.22,48.79,10,45,11,43.77S17.74,42.7,17.74,42.7Z" stroke="#464647" stroke-miterlimit="10" stroke-width="0.41" fill="url(#a)"/>
    <path d="M46.26,20.8,42.84,24l-1.37-.81-.16.17-.24-.41-.41-.24.17-.16L40,21.15l3.17-3.42S43,11.9,44.26,10.94s5-2.72,5.64,3.15c5.88.61,4.11,4.4,3.15,5.64S46.26,20.8,46.26,20.8Z" stroke="#464647" stroke-miterlimit="10" stroke-width="0.41" fill="url(#b)"/>
    <path d="M46.26,43.2,42.84,40l-1.37.81-.16-.17-.24.41-.41.24.17.16L40,42.85l3.17,3.42S43,52.1,44.26,53.06s5,2.72,5.64-3.15c5.88-.61,4.11-4.4,3.15-5.64S46.26,43.2,46.26,43.2Z" stroke="#464647" stroke-miterlimit="10" stroke-width="0.41" fill="url(#c)"/>
    <path d="M17.74,20.9l3.42,3.17,1.37-.82.16.17.24-.4.41-.25-.17-.15L24,21.25l-3.17-3.42S21,12,19.74,11s-5-2.73-5.64,3.15C8.22,14.8,10,18.59,11,19.83S17.74,20.9,17.74,20.9Z" stroke="#464647" stroke-miterlimit="10" stroke-width="0.41" fill="url(#d)"/>
  </g>
  <g>
    <path d="M17.74,42.7l3.42-3.18,1.37.82.16-.17.24.41.41.24-.17.15L24,42.34l-3.17,3.42s.17,5.83-1.07,6.8-5,2.72-5.64-3.16C8.22,48.79,10,45,11,43.77S17.74,42.7,17.74,42.7Z" fill="none" stroke="#464647" stroke-miterlimit="10" stroke-width="0.41"/>
    <path d="M46.26,20.8,42.84,24l-1.37-.81-.16.17-.24-.41-.41-.24.17-.16L40,21.15l3.17-3.42S43,11.9,44.26,10.94s5-2.72,5.64,3.15c5.88.61,4.11,4.4,3.15,5.64S46.26,20.8,46.26,20.8Z" fill="none" stroke="#464647" stroke-miterlimit="10" stroke-width="0.41"/>
    <path d="M46.26,43.2,42.84,40l-1.37.81-.16-.17-.24.41-.41.24.17.16L40,42.85l3.17,3.42S43,52.1,44.26,53.06s5,2.72,5.64-3.15c5.88-.61,4.11-4.4,3.15-5.64S46.26,43.2,46.26,43.2Z" fill="none" stroke="#464647" stroke-miterlimit="10" stroke-width="0.41"/>
    <path d="M17.74,20.9l3.42,3.17,1.37-.82.16.17.24-.4.41-.25-.17-.15L24,21.25l-3.17-3.42S21,12,19.74,11s-5-2.73-5.64,3.15C8.22,14.8,10,18.59,11,19.83S17.74,20.9,17.74,20.9Z" fill="none" stroke="#464647" stroke-miterlimit="10" stroke-width="0.41"/>
  </g>
  <path d="M48.69,25.72C46,13.91,34,14.06,32,14.17c-2-.11-13.95-.26-16.69,11.55-1.48,6.36,2.36,12.42,2.36,12.42s.15,2.37.3,3.11.88,1.33,2.21,1.47A7.86,7.86,0,0,1,24,44.5c.44.59-.3,4.14,1,5.17C26,50.42,28.33,51,32,51s6-.55,6.94-1.3c1.33-1,.59-4.58,1-5.17a7.86,7.86,0,0,1,3.85-1.78c1.33-.14,2.07-.74,2.21-1.47s.3-3.11.3-3.11S50.17,32.08,48.69,25.72Z" stroke="#464647" stroke-miterlimit="10" stroke-width="0.41" fill="url(#e)"/>
  <path d="M33.64,41.49a3,3,0,0,0-1.54-.92s0,0,0,0l-.12,0-.12,0s0,0,0,0a3,3,0,0,0-1.54.92c-.61.77-1,2.21.06,2.32A1.87,1.87,0,0,0,32,43.1a1.87,1.87,0,0,0,1.58.71C34.64,43.7,34.25,42.26,33.64,41.49Z" fill="url(#f)"/>
  <g>
    <line x1="32" y1="48.55" x2="32" y2="50.97" fill="none" stroke-miterlimit="10" stroke-width="0.44" stroke="url(#g)"/>
    <line x1="34.01" y1="48.46" x2="34.01" y2="50.88" fill="none" stroke-miterlimit="10" stroke-width="0.44" stroke="url(#h)"/>
    <line x1="29.99" y1="48.46" x2="29.99" y2="50.88" fill="none" stroke-miterlimit="10" stroke-width="0.44" stroke="url(#i)"/>
    <line x1="27.97" y1="48.16" x2="27.97" y2="50.57" fill="none" stroke-miterlimit="10" stroke-width="0.44" stroke="url(#j)"/>
    <line x1="25.96" y1="47.59" x2="25.96" y2="50" fill="none" stroke-miterlimit="10" stroke-width="0.44" stroke="url(#k)"/>
    <line x1="36.03" y1="48.11" x2="36.03" y2="50.53" fill="none" stroke-miterlimit="10" stroke-width="0.44" stroke="url(#l)"/>
    <line x1="38.04" y1="47.45" x2="38.04" y2="49.87" fill="none" stroke-miterlimit="10" stroke-width="0.44" stroke="url(#m)"/>
  </g>
  <g clip-path="url(#n)">
    <rect x="18.01" y="40.09" width="14.66" height="0.07" fill="#999"/>
    <rect x="18.01" y="40.01" width="14.66" height="0.07" fill="#979797"/>
    <rect x="18.01" y="39.94" width="14.66" height="0.07" fill="#969696"/>
    <rect x="18.01" y="39.87" width="14.66" height="0.07" fill="#949494"/>
    <rect x="18.01" y="39.8" width="14.66" height="0.07" fill="#939393"/>
    <rect x="18.01" y="39.73" width="14.66" height="0.07" fill="#919191"/>
    <rect x="18.01" y="39.65" width="14.66" height="0.07" fill="#8f8f8f"/>
    <rect x="18.01" y="39.58" width="14.66" height="0.07" fill="#8e8e8e"/>
    <rect x="18.01" y="39.51" width="14.66" height="0.07" fill="#8c8c8c"/>
    <rect x="18.01" y="39.44" width="14.66" height="0.07" fill="#8b8b8b"/>
    <rect x="18.01" y="39.36" width="14.66" height="0.07" fill="#898989"/>
    <rect x="18.01" y="39.29" width="14.66" height="0.07" fill="#888"/>
    <rect x="18.01" y="39.22" width="14.66" height="0.07" fill="#868686"/>
    <rect x="18.01" y="39.15" width="14.66" height="0.07" fill="#858585"/>
    <rect x="18.01" y="39.07" width="14.66" height="0.07" fill="#838383"/>
    <rect x="18.01" y="39" width="14.66" height="0.07" fill="#828282"/>
    <rect x="18.01" y="38.93" width="14.66" height="0.07" fill="gray"/>
    <rect x="18.01" y="38.86" width="14.66" height="0.07" fill="#7f7f7f"/>
    <rect x="18.01" y="38.78" width="14.66" height="0.07" fill="#7d7d7d"/>
    <rect x="18.01" y="38.71" width="14.66" height="0.07" fill="#7c7c7c"/>
    <rect x="18.01" y="38.64" width="14.66" height="0.07" fill="#7a7a7a"/>
    <rect x="18.01" y="38.57" width="14.66" height="0.07" fill="#797979"/>
    <rect x="18.01" y="38.5" width="14.66" height="0.07" fill="#777"/>
    <rect x="18.01" y="38.42" width="14.66" height="0.07" fill="#767676"/>
    <rect x="18.01" y="38.35" width="14.66" height="0.07" fill="#747474"/>
    <rect x="18.01" y="38.28" width="14.66" height="0.07" fill="#737373"/>
    <rect x="18.01" y="38.21" width="14.66" height="0.07" fill="#717171"/>
    <rect x="18.01" y="38.13" width="14.66" height="0.07" fill="#707070"/>
    <rect x="18.01" y="38.06" width="14.66" height="0.07" fill="#6f6f6f"/>
    <rect x="18.01" y="37.99" width="14.66" height="0.07" fill="#6d6d6d"/>
    <rect x="18.01" y="37.92" width="14.66" height="0.07" fill="#6c6c6c"/>
    <rect x="18.01" y="37.84" width="14.66" height="0.07" fill="#6b6b6b"/>
    <rect x="18.01" y="37.77" width="14.66" height="0.07" fill="#696969"/>
    <rect x="18.01" y="37.7" width="14.66" height="0.07" fill="#686868"/>
    <rect x="18.01" y="37.63" width="14.66" height="0.07" fill="#676767"/>
    <rect x="18.01" y="37.55" width="14.66" height="0.07" fill="#656565"/>
    <rect x="18.01" y="37.48" width="14.66" height="0.07" fill="#646464"/>
    <rect x="18.01" y="37.41" width="14.66" height="0.07" fill="#626262"/>
    <rect x="18.01" y="37.34" width="14.66" height="0.07" fill="#616161"/>
    <rect x="18.01" y="37.27" width="14.66" height="0.07" fill="#606060"/>
    <rect x="18.01" y="37.19" width="14.66" height="0.07" fill="#5e5e5e"/>
    <rect x="18.01" y="37.12" width="14.66" height="0.07" fill="#5d5d5d"/>
    <rect x="18.01" y="37.05" width="14.66" height="0.07" fill="#5b5b5b"/>
    <rect x="18.01" y="36.98" width="14.66" height="0.07" fill="#5a5a5a"/>
    <rect x="18.01" y="36.9" width="14.66" height="0.07" fill="#595959"/>
    <rect x="18.01" y="36.83" width="14.66" height="0.07" fill="#585858"/>
    <rect x="18.01" y="36.76" width="14.66" height="0.07" fill="#565656"/>
    <rect x="18.01" y="36.69" width="14.66" height="0.07" fill="#555"/>
    <rect x="18.01" y="36.61" width="14.66" height="0.07" fill="#545454"/>
    <rect x="18.01" y="36.54" width="14.66" height="0.07" fill="#525252"/>
    <rect x="18.01" y="36.47" width="14.66" height="0.07" fill="#515151"/>
    <rect x="18.01" y="36.4" width="14.66" height="0.07" fill="#505050"/>
    <rect x="18.01" y="36.32" width="14.66" height="0.07" fill="#4f4f4f"/>
    <rect x="18.01" y="36.25" width="14.66" height="0.07" fill="#4e4e4e"/>
    <rect x="18.01" y="36.18" width="14.66" height="0.07" fill="#4d4d4d"/>
    <rect x="18.01" y="36.11" width="14.66" height="0.07" fill="#4b4b4b"/>
    <rect x="18.01" y="36.04" width="14.66" height="0.07" fill="#4a4a4a"/>
    <rect x="18.01" y="35.96" width="14.66" height="0.07" fill="#494949"/>
    <rect x="18.01" y="35.89" width="14.66" height="0.07" fill="#474747"/>
    <rect x="18.01" y="35.82" width="14.66" height="0.07" fill="#464646"/>
    <rect x="18.01" y="35.75" width="14.66" height="0.07" fill="#454545"/>
    <rect x="18.01" y="35.67" width="14.66" height="0.07" fill="#444"/>
    <rect x="18.01" y="35.6" width="14.66" height="0.07" fill="#424242"/>
    <rect x="18.01" y="35.53" width="14.66" height="0.07" fill="#414141"/>
    <rect x="18.01" y="35.46" width="14.66" height="0.07" fill="#404040"/>
    <rect x="18.01" y="35.38" width="14.66" height="0.07" fill="#3f3f3f"/>
    <rect x="18.01" y="35.31" width="14.66" height="0.07" fill="#3e3e3e"/>
    <rect x="18.01" y="35.24" width="14.66" height="0.07" fill="#3d3d3d"/>
    <rect x="18.01" y="35.17" width="14.66" height="0.07" fill="#3b3b3b"/>
    <rect x="18.01" y="35.09" width="14.66" height="0.07" fill="#3a3a3a"/>
    <rect x="18.01" y="35.02" width="14.66" height="0.07" fill="#393939"/>
    <rect x="18.01" y="34.95" width="14.66" height="0.07" fill="#383838"/>
    <rect x="18.01" y="34.88" width="14.66" height="0.07" fill="#373737"/>
    <rect x="18.01" y="34.8" width="14.66" height="0.07" fill="#363636"/>
    <rect x="18.01" y="34.73" width="14.66" height="0.07" fill="#353535"/>
    <rect x="18.01" y="34.66" width="14.66" height="0.07" fill="#343434"/>
    <rect x="18.01" y="34.59" width="14.66" height="0.07" fill="#333"/>
    <rect x="18.01" y="34.52" width="14.66" height="0.07" fill="#323232"/>
    <rect x="18.01" y="34.44" width="14.66" height="0.07" fill="#313131"/>
    <rect x="18.01" y="34.37" width="14.66" height="0.07" fill="#303030"/>
    <rect x="18.01" y="34.3" width="14.66" height="0.07" fill="#2f2f2f"/>
    <rect x="18.01" y="34.23" width="14.66" height="0.07" fill="#2d2d2d"/>
    <rect x="18.01" y="34.15" width="14.66" height="0.07" fill="#2c2c2c"/>
    <rect x="18.01" y="34.08" width="14.66" height="0.07" fill="#2b2b2b"/>
    <rect x="18.01" y="34.01" width="14.66" height="0.07" fill="#2a2a2a"/>
    <rect x="18.01" y="33.94" width="14.66" height="0.07" fill="#292929"/>
    <rect x="18.01" y="33.86" width="14.66" height="0.07" fill="#282828"/>
    <rect x="18.01" y="33.79" width="14.66" height="0.07" fill="#272727"/>
    <rect x="18.01" y="33.72" width="14.66" height="0.07" fill="#262626"/>
    <rect x="18.01" y="33.65" width="14.66" height="0.07" fill="#252525"/>
    <rect x="18.01" y="33.57" width="14.66" height="0.07" fill="#242424"/>
    <rect x="18.01" y="33.5" width="14.66" height="0.07" fill="#232323"/>
    <rect x="18.01" y="33.43" width="14.66" height="0.07" fill="#222"/>
    <rect x="18.01" y="33.36" width="14.66" height="0.07" fill="#222"/>
    <rect x="18.01" y="33.29" width="14.66" height="0.07" fill="#212121"/>
    <rect x="18.01" y="33.21" width="14.66" height="0.07" fill="#202020"/>
    <rect x="18.01" y="33.14" width="14.66" height="0.07" fill="#1f1f1f"/>
    <rect x="18.01" y="33.07" width="14.66" height="0.07" fill="#1e1e1e"/>
    <rect x="18.01" y="33" width="14.66" height="0.07" fill="#1d1d1d"/>
    <rect x="18.01" y="32.92" width="14.66" height="0.07" fill="#1d1d1d"/>
    <rect x="18.01" y="32.85" width="14.66" height="0.07" fill="#1c1c1c"/>
    <rect x="18.01" y="32.78" width="14.66" height="0.07" fill="#1b1b1b"/>
    <rect x="18.01" y="32.71" width="14.66" height="0.07" fill="#1a1a1a"/>
    <rect x="18.01" y="32.63" width="14.66" height="0.07" fill="#1a1a1a"/>
    <rect x="18.01" y="32.56" width="14.66" height="0.07" fill="#191919"/>
    <rect x="18.01" y="32.49" width="14.66" height="0.07" fill="#181818"/>
    <rect x="18.01" y="32.42" width="14.66" height="0.07" fill="#181818"/>
    <rect x="18.01" y="32.34" width="14.66" height="0.07" fill="#171717"/>
    <rect x="18.01" y="32.27" width="14.66" height="0.07" fill="#171717"/>
    <rect x="18.01" y="32.2" width="14.66" height="0.07" fill="#161616"/>
    <rect x="18.01" y="32.13" width="14.66" height="0.07" fill="#161616"/>
    <rect x="18.01" y="32.06" width="14.66" height="0.07" fill="#151515"/>
    <rect x="18.01" y="31.98" width="14.66" height="0.07" fill="#151515"/>
    <rect x="18.01" y="31.91" width="14.66" height="0.07" fill="#141414"/>
    <rect x="18.01" y="31.84" width="14.66" height="0.07" fill="#141414"/>
    <rect x="18.01" y="31.77" width="14.66" height="0.07" fill="#131313"/>
    <rect x="18.01" y="31.69" width="14.66" height="0.07" fill="#131313"/>
    <rect x="18.01" y="31.62" width="14.66" height="0.07" fill="#121212"/>
    <rect x="18.01" y="31.55" width="14.66" height="0.07" fill="#121212"/>
    <rect x="18.01" y="31.48" width="14.66" height="0.07" fill="#111"/>
    <rect x="18.01" y="31.4" width="14.66" height="0.07" fill="#111"/>
    <rect x="18.01" y="31.33" width="14.66" height="0.07" fill="#101010"/>
    <rect x="18.01" y="31.26" width="14.66" height="0.07" fill="#101010"/>
    <rect x="18.01" y="31.19" width="14.66" height="0.07" fill="#0f0f0f"/>
    <rect x="18.01" y="31.11" width="14.66" height="0.07" fill="#0f0f0f"/>
    <rect x="18.01" y="31.04" width="14.66" height="0.07" fill="#0e0e0e"/>
    <rect x="18.01" y="30.97" width="14.66" height="0.07" fill="#0e0e0e"/>
    <rect x="18.01" y="30.9" width="14.66" height="0.07" fill="#0e0e0e"/>
    <rect x="18.01" y="30.83" width="14.66" height="0.07" fill="#0d0d0d"/>
    <rect x="18.01" y="30.75" width="14.66" height="0.07" fill="#0d0d0d"/>
    <rect x="18.01" y="30.68" width="14.66" height="0.07" fill="#0c0c0c"/>
    <rect x="18.01" y="30.61" width="14.66" height="0.07" fill="#0c0c0c"/>
    <rect x="18.01" y="30.54" width="14.66" height="0.07" fill="#0b0b0b"/>
    <rect x="18.01" y="30.46" width="14.66" height="0.07" fill="#0b0b0b"/>
    <rect x="18.01" y="30.39" width="14.66" height="0.07" fill="#0a0a0a"/>
    <rect x="18.01" y="30.32" width="14.66" height="0.07" fill="#0a0a0a"/>
    <rect x="18.01" y="30.25" width="14.66" height="0.07" fill="#090909"/>
    <rect x="18.01" y="30.17" width="14.66" height="0.07" fill="#090909"/>
    <rect x="18.01" y="30.1" width="14.66" height="0.07" fill="#080808"/>
    <rect x="18.01" y="30.03" width="14.66" height="0.07" fill="#080808"/>
    <rect x="18.01" y="29.96" width="14.66" height="0.07" fill="#070707"/>
    <rect x="18.01" y="29.88" width="14.66" height="0.07" fill="#070707"/>
    <rect x="18.01" y="29.81" width="14.66" height="0.07" fill="#060606"/>
    <rect x="18.01" y="29.74" width="14.66" height="0.07" fill="#060606"/>
    <rect x="18.01" y="29.67" width="14.66" height="0.07" fill="#050505"/>
    <rect x="18.01" y="29.6" width="14.66" height="0.07" fill="#040404"/>
    <rect x="18.01" y="29.52" width="14.66" height="0.07" fill="#040404"/>
    <rect x="18.01" y="29.45" width="14.66" height="0.07" fill="#030303"/>
    <rect x="18.01" y="29.38" width="14.66" height="0.07" fill="#030303"/>
    <rect x="18.01" y="29.31" width="14.66" height="0.07" fill="#020202"/>
    <rect x="18.01" y="29.23" width="14.66" height="0.07" fill="#010101"/>
    <rect x="18.01" y="29.16" width="14.66" height="0.07" fill="#010101"/>
    <rect x="18.01" y="29.09" width="14.66" height="0.07"/>
    <rect x="18.01" y="27.56" width="14.66" height="1.53"/>
  </g>
  <path d="M24.54,40.24a5.58,5.58,0,0,1-3.08-1,6.08,6.08,0,0,1-.72-.58,5.76,5.76,0,0,1-1.66-5.57,6.08,6.08,0,0,1,7.19-4.29c2,.41,2.89,1.94,3.6,2.95l0,.06a6,6,0,0,0-3.77-2.52,5.57,5.57,0,0,0-6.46,3.94,5.17,5.17,0,0,0,1.49,5,5.57,5.57,0,0,0,.64.52,4.94,4.94,0,0,0,3.6.76,4.39,4.39,0,0,0,.87-.27,4.25,4.25,0,0,0,2.06-1.89,4.33,4.33,0,0,0-.63-5,3.91,3.91,0,0,0-2.82-1.22h0a3.59,3.59,0,0,0-2.6,1.09,3.4,3.4,0,0,0,.27,4.81,2.68,2.68,0,0,0,3.85-.35,2.23,2.23,0,0,0,.05-2.83,1.8,1.8,0,0,0-2.34-.59,1.71,1.71,0,0,0-.74,1.15,1.12,1.12,0,0,0,.49,1.12.6.6,0,0,0,.65,0,.37.37,0,0,0-.06-.45.34.34,0,0,1,0-.45.29.29,0,0,1,.42,0A1,1,0,0,1,25,36L25,36l-.06,0a1.22,1.22,0,0,1-1.37,0,1.77,1.77,0,0,1-.77-1.73,2.26,2.26,0,0,1,1-1.57,2.38,2.38,0,0,1,3.13.72,2.85,2.85,0,0,1-.05,3.6,3.28,3.28,0,0,1-4.7.42,4,4,0,0,1-.33-5.68,4.19,4.19,0,0,1,3-1.29h0A4.52,4.52,0,0,1,28.14,32a4.92,4.92,0,0,1,.73,5.67,4.81,4.81,0,0,1-2.36,2.16,4.94,4.94,0,0,1-1,.31A4.59,4.59,0,0,1,24.54,40.24Z" fill="#fff"/>
  <g clip-path="url(#o)">
    <rect x="32.68" y="40.09" width="14.66" height="0.07" fill="#999"/>
    <rect x="32.68" y="40.01" width="14.66" height="0.07" fill="#979797"/>
    <rect x="32.68" y="39.94" width="14.66" height="0.07" fill="#969696"/>
    <rect x="32.68" y="39.87" width="14.66" height="0.07" fill="#949494"/>
    <rect x="32.68" y="39.8" width="14.66" height="0.07" fill="#939393"/>
    <rect x="32.68" y="39.73" width="14.66" height="0.07" fill="#919191"/>
    <rect x="32.68" y="39.65" width="14.66" height="0.07" fill="#8f8f8f"/>
    <rect x="32.68" y="39.58" width="14.66" height="0.07" fill="#8e8e8e"/>
    <rect x="32.68" y="39.51" width="14.66" height="0.07" fill="#8c8c8c"/>
    <rect x="32.68" y="39.44" width="14.66" height="0.07" fill="#8b8b8b"/>
    <rect x="32.68" y="39.36" width="14.66" height="0.07" fill="#898989"/>
    <rect x="32.68" y="39.29" width="14.66" height="0.07" fill="#888"/>
    <rect x="32.68" y="39.22" width="14.66" height="0.07" fill="#868686"/>
    <rect x="32.68" y="39.15" width="14.66" height="0.07" fill="#858585"/>
    <rect x="32.68" y="39.07" width="14.66" height="0.07" fill="#838383"/>
    <rect x="32.68" y="39" width="14.66" height="0.07" fill="#828282"/>
    <rect x="32.68" y="38.93" width="14.66" height="0.07" fill="gray"/>
    <rect x="32.68" y="38.86" width="14.66" height="0.07" fill="#7f7f7f"/>
    <rect x="32.68" y="38.78" width="14.66" height="0.07" fill="#7d7d7d"/>
    <rect x="32.68" y="38.71" width="14.66" height="0.07" fill="#7c7c7c"/>
    <rect x="32.68" y="38.64" width="14.66" height="0.07" fill="#7a7a7a"/>
    <rect x="32.68" y="38.57" width="14.66" height="0.07" fill="#797979"/>
    <rect x="32.68" y="38.5" width="14.66" height="0.07" fill="#777"/>
    <rect x="32.68" y="38.42" width="14.66" height="0.07" fill="#767676"/>
    <rect x="32.68" y="38.35" width="14.66" height="0.07" fill="#747474"/>
    <rect x="32.68" y="38.28" width="14.66" height="0.07" fill="#737373"/>
    <rect x="32.68" y="38.21" width="14.66" height="0.07" fill="#717171"/>
    <rect x="32.68" y="38.13" width="14.66" height="0.07" fill="#707070"/>
    <rect x="32.68" y="38.06" width="14.66" height="0.07" fill="#6f6f6f"/>
    <rect x="32.68" y="37.99" width="14.66" height="0.07" fill="#6d6d6d"/>
    <rect x="32.68" y="37.92" width="14.66" height="0.07" fill="#6c6c6c"/>
    <rect x="32.68" y="37.84" width="14.66" height="0.07" fill="#6b6b6b"/>
    <rect x="32.68" y="37.77" width="14.66" height="0.07" fill="#696969"/>
    <rect x="32.68" y="37.7" width="14.66" height="0.07" fill="#686868"/>
    <rect x="32.68" y="37.63" width="14.66" height="0.07" fill="#676767"/>
    <rect x="32.68" y="37.55" width="14.66" height="0.07" fill="#656565"/>
    <rect x="32.68" y="37.48" width="14.66" height="0.07" fill="#646464"/>
    <rect x="32.68" y="37.41" width="14.66" height="0.07" fill="#626262"/>
    <rect x="32.68" y="37.34" width="14.66" height="0.07" fill="#616161"/>
    <rect x="32.68" y="37.27" width="14.66" height="0.07" fill="#606060"/>
    <rect x="32.68" y="37.19" width="14.66" height="0.07" fill="#5e5e5e"/>
    <rect x="32.68" y="37.12" width="14.66" height="0.07" fill="#5d5d5d"/>
    <rect x="32.68" y="37.05" width="14.66" height="0.07" fill="#5b5b5b"/>
    <rect x="32.68" y="36.98" width="14.66" height="0.07" fill="#5a5a5a"/>
    <rect x="32.68" y="36.9" width="14.66" height="0.07" fill="#595959"/>
    <rect x="32.68" y="36.83" width="14.66" height="0.07" fill="#585858"/>
    <rect x="32.68" y="36.76" width="14.66" height="0.07" fill="#565656"/>
    <rect x="32.68" y="36.69" width="14.66" height="0.07" fill="#555"/>
    <rect x="32.68" y="36.61" width="14.66" height="0.07" fill="#545454"/>
    <rect x="32.68" y="36.54" width="14.66" height="0.07" fill="#525252"/>
    <rect x="32.68" y="36.47" width="14.66" height="0.07" fill="#515151"/>
    <rect x="32.68" y="36.4" width="14.66" height="0.07" fill="#505050"/>
    <rect x="32.68" y="36.32" width="14.66" height="0.07" fill="#4f4f4f"/>
    <rect x="32.68" y="36.25" width="14.66" height="0.07" fill="#4e4e4e"/>
    <rect x="32.68" y="36.18" width="14.66" height="0.07" fill="#4d4d4d"/>
    <rect x="32.68" y="36.11" width="14.66" height="0.07" fill="#4b4b4b"/>
    <rect x="32.68" y="36.04" width="14.66" height="0.07" fill="#4a4a4a"/>
    <rect x="32.68" y="35.96" width="14.66" height="0.07" fill="#494949"/>
    <rect x="32.68" y="35.89" width="14.66" height="0.07" fill="#474747"/>
    <rect x="32.68" y="35.82" width="14.66" height="0.07" fill="#464646"/>
    <rect x="32.68" y="35.75" width="14.66" height="0.07" fill="#454545"/>
    <rect x="32.68" y="35.67" width="14.66" height="0.07" fill="#444"/>
    <rect x="32.68" y="35.6" width="14.66" height="0.07" fill="#424242"/>
    <rect x="32.68" y="35.53" width="14.66" height="0.07" fill="#414141"/>
    <rect x="32.68" y="35.46" width="14.66" height="0.07" fill="#404040"/>
    <rect x="32.68" y="35.38" width="14.66" height="0.07" fill="#3f3f3f"/>
    <rect x="32.68" y="35.31" width="14.66" height="0.07" fill="#3e3e3e"/>
    <rect x="32.68" y="35.24" width="14.66" height="0.07" fill="#3d3d3d"/>
    <rect x="32.68" y="35.17" width="14.66" height="0.07" fill="#3b3b3b"/>
    <rect x="32.68" y="35.09" width="14.66" height="0.07" fill="#3a3a3a"/>
    <rect x="32.68" y="35.02" width="14.66" height="0.07" fill="#393939"/>
    <rect x="32.68" y="34.95" width="14.66" height="0.07" fill="#383838"/>
    <rect x="32.68" y="34.88" width="14.66" height="0.07" fill="#373737"/>
    <rect x="32.68" y="34.8" width="14.66" height="0.07" fill="#363636"/>
    <rect x="32.68" y="34.73" width="14.66" height="0.07" fill="#353535"/>
    <rect x="32.68" y="34.66" width="14.66" height="0.07" fill="#343434"/>
    <rect x="32.68" y="34.59" width="14.66" height="0.07" fill="#333"/>
    <rect x="32.68" y="34.52" width="14.66" height="0.07" fill="#323232"/>
    <rect x="32.68" y="34.44" width="14.66" height="0.07" fill="#313131"/>
    <rect x="32.68" y="34.37" width="14.66" height="0.07" fill="#303030"/>
    <rect x="32.68" y="34.3" width="14.66" height="0.07" fill="#2f2f2f"/>
    <rect x="32.68" y="34.23" width="14.66" height="0.07" fill="#2d2d2d"/>
    <rect x="32.68" y="34.15" width="14.66" height="0.07" fill="#2c2c2c"/>
    <rect x="32.68" y="34.08" width="14.66" height="0.07" fill="#2b2b2b"/>
    <rect x="32.68" y="34.01" width="14.66" height="0.07" fill="#2a2a2a"/>
    <rect x="32.68" y="33.94" width="14.66" height="0.07" fill="#292929"/>
    <rect x="32.68" y="33.86" width="14.66" height="0.07" fill="#282828"/>
    <rect x="32.68" y="33.79" width="14.66" height="0.07" fill="#272727"/>
    <rect x="32.68" y="33.72" width="14.66" height="0.07" fill="#262626"/>
    <rect x="32.68" y="33.65" width="14.66" height="0.07" fill="#252525"/>
    <rect x="32.68" y="33.57" width="14.66" height="0.07" fill="#242424"/>
    <rect x="32.68" y="33.5" width="14.66" height="0.07" fill="#232323"/>
    <rect x="32.68" y="33.43" width="14.66" height="0.07" fill="#222"/>
    <rect x="32.68" y="33.36" width="14.66" height="0.07" fill="#222"/>
    <rect x="32.68" y="33.29" width="14.66" height="0.07" fill="#212121"/>
    <rect x="32.68" y="33.21" width="14.66" height="0.07" fill="#202020"/>
    <rect x="32.68" y="33.14" width="14.66" height="0.07" fill="#1f1f1f"/>
    <rect x="32.68" y="33.07" width="14.66" height="0.07" fill="#1e1e1e"/>
    <rect x="32.68" y="33" width="14.66" height="0.07" fill="#1d1d1d"/>
    <rect x="32.68" y="32.92" width="14.66" height="0.07" fill="#1d1d1d"/>
    <rect x="32.68" y="32.85" width="14.66" height="0.07" fill="#1c1c1c"/>
    <rect x="32.68" y="32.78" width="14.66" height="0.07" fill="#1b1b1b"/>
    <rect x="32.68" y="32.71" width="14.66" height="0.07" fill="#1a1a1a"/>
    <rect x="32.68" y="32.63" width="14.66" height="0.07" fill="#1a1a1a"/>
    <rect x="32.68" y="32.56" width="14.66" height="0.07" fill="#191919"/>
    <rect x="32.68" y="32.49" width="14.66" height="0.07" fill="#181818"/>
    <rect x="32.68" y="32.42" width="14.66" height="0.07" fill="#181818"/>
    <rect x="32.68" y="32.34" width="14.66" height="0.07" fill="#171717"/>
    <rect x="32.68" y="32.27" width="14.66" height="0.07" fill="#171717"/>
    <rect x="32.68" y="32.2" width="14.66" height="0.07" fill="#161616"/>
    <rect x="32.68" y="32.13" width="14.66" height="0.07" fill="#161616"/>
    <rect x="32.68" y="32.06" width="14.66" height="0.07" fill="#151515"/>
    <rect x="32.68" y="31.98" width="14.66" height="0.07" fill="#151515"/>
    <rect x="32.68" y="31.91" width="14.66" height="0.07" fill="#141414"/>
    <rect x="32.68" y="31.84" width="14.66" height="0.07" fill="#141414"/>
    <rect x="32.68" y="31.77" width="14.66" height="0.07" fill="#131313"/>
    <rect x="32.68" y="31.69" width="14.66" height="0.07" fill="#131313"/>
    <rect x="32.68" y="31.62" width="14.66" height="0.07" fill="#121212"/>
    <rect x="32.68" y="31.55" width="14.66" height="0.07" fill="#121212"/>
    <rect x="32.68" y="31.48" width="14.66" height="0.07" fill="#111"/>
    <rect x="32.68" y="31.4" width="14.66" height="0.07" fill="#111"/>
    <rect x="32.68" y="31.33" width="14.66" height="0.07" fill="#101010"/>
    <rect x="32.68" y="31.26" width="14.66" height="0.07" fill="#101010"/>
    <rect x="32.68" y="31.19" width="14.66" height="0.07" fill="#0f0f0f"/>
    <rect x="32.68" y="31.11" width="14.66" height="0.07" fill="#0f0f0f"/>
    <rect x="32.68" y="31.04" width="14.66" height="0.07" fill="#0e0e0e"/>
    <rect x="32.68" y="30.97" width="14.66" height="0.07" fill="#0e0e0e"/>
    <rect x="32.68" y="30.9" width="14.66" height="0.07" fill="#0e0e0e"/>
    <rect x="32.68" y="30.83" width="14.66" height="0.07" fill="#0d0d0d"/>
    <rect x="32.68" y="30.75" width="14.66" height="0.07" fill="#0d0d0d"/>
    <rect x="32.68" y="30.68" width="14.66" height="0.07" fill="#0c0c0c"/>
    <rect x="32.68" y="30.61" width="14.66" height="0.07" fill="#0c0c0c"/>
    <rect x="32.68" y="30.54" width="14.66" height="0.07" fill="#0b0b0b"/>
    <rect x="32.68" y="30.46" width="14.66" height="0.07" fill="#0b0b0b"/>
    <rect x="32.68" y="30.39" width="14.66" height="0.07" fill="#0a0a0a"/>
    <rect x="32.68" y="30.32" width="14.66" height="0.07" fill="#0a0a0a"/>
    <rect x="32.68" y="30.25" width="14.66" height="0.07" fill="#090909"/>
    <rect x="32.68" y="30.17" width="14.66" height="0.07" fill="#090909"/>
    <rect x="32.68" y="30.1" width="14.66" height="0.07" fill="#080808"/>
    <rect x="32.68" y="30.03" width="14.66" height="0.07" fill="#080808"/>
    <rect x="32.68" y="29.96" width="14.66" height="0.07" fill="#070707"/>
    <rect x="32.68" y="29.88" width="14.66" height="0.07" fill="#070707"/>
    <rect x="32.68" y="29.81" width="14.66" height="0.07" fill="#060606"/>
    <rect x="32.68" y="29.74" width="14.66" height="0.07" fill="#060606"/>
    <rect x="32.68" y="29.67" width="14.66" height="0.07" fill="#050505"/>
    <rect x="32.68" y="29.6" width="14.66" height="0.07" fill="#040404"/>
    <rect x="32.68" y="29.52" width="14.66" height="0.07" fill="#040404"/>
    <rect x="32.68" y="29.45" width="14.66" height="0.07" fill="#030303"/>
    <rect x="32.68" y="29.38" width="14.66" height="0.07" fill="#030303"/>
    <rect x="32.68" y="29.31" width="14.66" height="0.07" fill="#020202"/>
    <rect x="32.68" y="29.23" width="14.66" height="0.07" fill="#010101"/>
    <rect x="32.68" y="29.16" width="14.66" height="0.07" fill="#010101"/>
    <rect x="32.68" y="29.09" width="14.66" height="0.07"/>
    <rect x="32.68" y="27.56" width="14.66" height="1.53"/>
  </g>
  <path d="M39.2,40.24a5.58,5.58,0,0,1-3.08-1,6,6,0,0,1-.71-.58,5.76,5.76,0,0,1-1.67-5.57,6.09,6.09,0,0,1,7.2-4.29c2,.41,2.88,1.94,3.59,2.95l0,.06a6,6,0,0,0-3.77-2.52,5.57,5.57,0,0,0-6.46,3.94,5.17,5.17,0,0,0,1.49,5,6.59,6.59,0,0,0,.64.52,5,5,0,0,0,3.6.76,4.19,4.19,0,0,0,.87-.27A4.25,4.25,0,0,0,43,37.39a4.33,4.33,0,0,0-.63-5,3.91,3.91,0,0,0-2.82-1.22h0a3.57,3.57,0,0,0-2.59,1.09,3.4,3.4,0,0,0,.26,4.81,2.67,2.67,0,0,0,3.85-.35,2.23,2.23,0,0,0,.05-2.83,1.8,1.8,0,0,0-2.34-.59A1.71,1.71,0,0,0,38,34.47a1.14,1.14,0,0,0,.49,1.12.6.6,0,0,0,.65,0,.39.39,0,0,0,0-.45.33.33,0,0,1,0-.45.29.29,0,0,1,.42,0A1,1,0,0,1,39.65,36l0,.05,0,0a1.22,1.22,0,0,1-1.37,0,1.78,1.78,0,0,1-.78-1.73,2.29,2.29,0,0,1,1-1.57,2.38,2.38,0,0,1,3.13.72,2.85,2.85,0,0,1,0,3.6,3.28,3.28,0,0,1-4.7.42,4,4,0,0,1-.33-5.68,4.19,4.19,0,0,1,3-1.29h0A4.55,4.55,0,0,1,42.81,32a4.93,4.93,0,0,1,.72,5.67,4.81,4.81,0,0,1-2.36,2.16,4.75,4.75,0,0,1-1,.31A4.59,4.59,0,0,1,39.2,40.24Z" fill="#fff"/>
</svg>
