<svg xmlns="http://www.w3.org/2000/svg" xmlns:xlink="http://www.w3.org/1999/xlink" viewBox="0 0 64 64">
  <defs>
    <linearGradient id="a" x1="367.52" y1="397.16" x2="367.52" y2="442.33" gradientTransform="translate(-441.25 -264.04) rotate(-16.76)" gradientUnits="userSpaceOnUse">
      <stop offset="0" stop-color="#fecd07"/>
      <stop offset="0.23" stop-color="#fea205"/>
      <stop offset="0.45" stop-color="#ff7f03"/>
      <stop offset="0.65" stop-color="#ff6601"/>
      <stop offset="0.84" stop-color="#ff5700"/>
      <stop offset="1" stop-color="#ff5200"/>
    </linearGradient>
    <linearGradient id="b" x1="29.51" y1="16.6" x2="34.5" y2="44.91" gradientTransform="matrix(1, 0, 0, 1, 0, 0)" xlink:href="#a"/>
  </defs>
  <g>
    <path d="M9.7,38.32,19,41l-4.67,5.94,10.11-1.66-1.91,7.69,9.23-6.66,2.33,8.46,5-9.94,5.17,6.38,0-11.77-5.5,4.86-7.09,1.95-7-1.64-5.18-4.1-2.95-5.85L16.45,28l2.64-6L24,17.58l6.44-1.94,6.3.86,5.57,3.32,3.61,5.53L47,32.16l-2.51,7.13,7.95,3L47,32.16l8-.94-8.36-6.09,6.06-3.28L42.41,19.71l3.76-5.83L37,15.9l1.13-6.08L30.4,15.39,28.45,9.26l-4.51,8.27-4.8-4.67-.46,8.89-6.06-2.37,3.55,8.56-7.1.64,7.07,6.21Z" fill="url(#a)"/>
    <path d="M47.57,30.91a15.57,15.57,0,0,1-15.8,15.33A15.57,15.57,0,0,1,16,30.91,15.58,15.58,0,0,1,31.77,15.57,15.58,15.58,0,0,1,47.57,30.91Z" fill="#fb8501"/>
    <path d="M47,30.75c0,7.93-6.7,14.35-15,14.35s-15-6.42-15-14.35S23.75,16.4,32,16.4,47,22.83,47,30.75Z" fill="url(#b)"/>
    <g>
      <path d="M31.85,30.7c9.58-2.52,8.83-8.28,10.18-6.41a10.18,10.18,0,0,1,1.58,3.32c1.53,5.84-2.48,12-9,13.68s-13-1.65-14.54-7.49a10.15,10.15,0,0,1-.22-4C20.2,27.59,21.31,33.48,31.85,30.7Z" fill="#fff"/>
      <path d="M21.56,22.2c.67,0,6.7,1.51,6.7,1.51l-9.21,3.85,4.86-3.47Z" fill="#fff"/>
      <path d="M36.72,18.29c-.58.33-5.08,4.61-5.08,4.61l9.91-1.18-5.94-.63Z" fill="#fff"/>
    </g>
  </g>
</svg>
