<svg xmlns="http://www.w3.org/2000/svg" xmlns:xlink="http://www.w3.org/1999/xlink" viewBox="0 0 64 64">
  <defs>
    <linearGradient id="a" x1="23.58" y1="5.09" x2="39.69" y2="58.6" gradientUnits="userSpaceOnUse">
      <stop offset="0" stop-color="#fecd07"/>
      <stop offset="0.23" stop-color="#fea205"/>
      <stop offset="0.45" stop-color="#ff7f03"/>
      <stop offset="0.65" stop-color="#ff6601"/>
      <stop offset="0.84" stop-color="#ff5700"/>
      <stop offset="1" stop-color="#ff5200"/>
    </linearGradient>
    <linearGradient id="b" x1="14.3" y1="30.33" x2="48.29" y2="30.33" gradientUnits="userSpaceOnUse">
      <stop offset="0" stop-color="#fecd07"/>
      <stop offset="0.04" stop-color="#fcc407"/>
      <stop offset="0.26" stop-color="#f39809"/>
      <stop offset="0.47" stop-color="#eb750a"/>
      <stop offset="0.67" stop-color="#e65c0a"/>
      <stop offset="0.85" stop-color="#e34d0b"/>
      <stop offset="1" stop-color="#e2480b"/>
    </linearGradient>
  </defs>
  <g>
    <polygon points="60.37 31.03 50.02 23.51 57.53 19.44 44.88 16.79 49.53 9.58 38.12 12.09 39.52 4.56 30.02 11.46 27.61 3.87 22.03 14.1 16.09 8.32 15.52 19.31 8.02 16.38 12.41 26.98 3.63 27.77 12.38 35.45 4.41 39.83 15.96 43.1 10.18 50.45 22.69 48.4 20.32 57.9 31.74 49.67 34.62 60.13 40.85 47.84 47.25 55.73 47.31 41.17 47.41 41.02 57.23 44.76 50.52 32.2 60.37 31.03" fill="url(#a)"/>
    <path d="M48.29,30.33a16.75,16.75,0,0,1-17,16.49,16.75,16.75,0,0,1-17-16.49,16.75,16.75,0,0,1,17-16.49A16.75,16.75,0,0,1,48.29,30.33Z" fill="url(#b)"/>
    <g>
      <path d="M20.28,23.63c2-.07.64-.06,8,1.51l-10.4,6.13,5.26-5.51Z" fill="#56230a"/>
      <path d="M36.92,18.7c-.67.42-5.83,5.67-5.83,5.67l12-.62-7.4-1.69Z" fill="#56230a"/>
    </g>
    <g>
      <path d="M30.29,41.53c-7.73,0-10.39-7.41-10.42-7.48l-.17-.5L42.89,26.9l.11.52c0,.1,2.18,10.4-8.66,13.51A14.89,14.89,0,0,1,30.29,41.53Z" fill="#fff"/>
      <path d="M42.51,27.53s2.21,9.9-8.31,12.91a14.18,14.18,0,0,1-3.91.59c-7.46,0-9.95-7.15-9.95-7.15l22.17-6.35m.75-1.26-1,.3L20.07,32.92l-1,.29.35,1c0,.08,2.81,7.82,10.89,7.82a15.4,15.4,0,0,0,4.18-.62c9-2.59,9.85-10.36,9-14.1l-.23-1Z" fill="#56230a"/>
    </g>
  </g>
</svg>
