<svg xmlns="http://www.w3.org/2000/svg" xmlns:xlink="http://www.w3.org/1999/xlink" viewBox="0 0 64 64">
  <defs>
    <radialGradient id="a" cx="32" cy="32.03" r="17.07" gradientUnits="userSpaceOnUse">
      <stop offset="0" stop-color="#f664b0"/>
      <stop offset="0.2" stop-color="#f361ac"/>
      <stop offset="0.39" stop-color="#e957a1"/>
      <stop offset="0.57" stop-color="#d9478f"/>
      <stop offset="0.74" stop-color="#c33075"/>
      <stop offset="0.91" stop-color="#a61453"/>
      <stop offset="1" stop-color="#94013e"/>
    </radialGradient>
  </defs>
  <g>
    <path d="M47.28,18.75C40.14,12.63,34.22,17.61,32,20c-2.22-2.42-8.14-7.4-15.28-1.28-8.79,8.79,6.77,27.36,15,29.4v.1l.25,0,.25,0v-.1C40.51,46.11,56.07,27.54,47.28,18.75Z" fill="url(#a)"/>
    <path d="M40.47,18.67a8.34,8.34,0,0,1,5.46,2.47c2,2.18,2.49,5.26,1.37,9.17-2.23,7.79-10.13,16.27-15,17.75-4.86-1.48-12.76-10-15-17.75-1.11-3.91-.65-7,1.38-9.17a8.32,8.32,0,0,1,5.45-2.47c3,0,5.46,2.3,6.65,3.67l1.51,1.73,1.5-1.73C35,21,37.46,18.67,40.47,18.67m0-2c-3.81,0-6.74,2.73-8.15,4.36C30.9,19.4,28,16.67,24.16,16.67a10.2,10.2,0,0,0-6.85,3C8.67,28.79,24,48,32.07,50.07v.11l.25,0,.24,0v-.11C40.67,48,56,28.79,47.32,19.71a10.2,10.2,0,0,0-6.85-3Z" fill="#820f44"/>
  </g>
</svg>
