<svg xmlns="http://www.w3.org/2000/svg" xmlns:xlink="http://www.w3.org/1999/xlink" viewBox="0 0 64 64">
  <defs>
    <linearGradient id="a" x1="28.1" y1="9.49" x2="23.51" y2="17.44" gradientUnits="userSpaceOnUse">
      <stop offset="0" stop-color="#2d7722"/>
      <stop offset="0.2" stop-color="#2a6c20"/>
      <stop offset="0.56" stop-color="#214f19"/>
      <stop offset="1" stop-color="#14220f"/>
    </linearGradient>
    <linearGradient id="b" x1="19.34" y1="9.86" x2="33.07" y2="17.79" gradientUnits="userSpaceOnUse">
      <stop offset="0" stop-color="#4eae3c"/>
      <stop offset="0.04" stop-color="#4aa539"/>
      <stop offset="0.24" stop-color="#397f2b"/>
      <stop offset="0.44" stop-color="#2b6121"/>
      <stop offset="0.64" stop-color="#224b19"/>
      <stop offset="0.82" stop-color="#1c3e15"/>
      <stop offset="1" stop-color="#1a3a13"/>
    </linearGradient>
    <linearGradient id="c" x1="-7642.32" y1="11.89" x2="-7645.73" y2="17.8" gradientTransform="matrix(-1, 0, 0, 1, -7606.72, 0)" gradientUnits="userSpaceOnUse">
      <stop offset="0" stop-color="#2d7722"/>
      <stop offset="0.26" stop-color="#2a6c20"/>
      <stop offset="0.7" stop-color="#204f19"/>
      <stop offset="1" stop-color="#193814"/>
    </linearGradient>
    <linearGradient id="d" x1="-7642.1" y1="12.3" x2="-7645.35" y2="17.92" gradientTransform="matrix(-1, 0, 0, 1, -7606.72, 0)" gradientUnits="userSpaceOnUse">
      <stop offset="0" stop-color="#40a332"/>
      <stop offset="0.17" stop-color="#3c982f"/>
      <stop offset="0.47" stop-color="#317b27"/>
      <stop offset="0.86" stop-color="#204b19"/>
      <stop offset="1" stop-color="#193814"/>
    </linearGradient>
    <radialGradient id="e" cx="107.43" cy="42.67" r="21.19" gradientTransform="translate(-83.11) scale(0.97 1)" gradientUnits="userSpaceOnUse">
      <stop offset="0" stop-color="#f10f83"/>
      <stop offset="0.22" stop-color="#ed0e80"/>
      <stop offset="0.43" stop-color="#e20d78"/>
      <stop offset="0.62" stop-color="#d00a6a"/>
      <stop offset="0.81" stop-color="#b60657"/>
      <stop offset="1" stop-color="#95013e"/>
      <stop offset="1" stop-color="#94013e"/>
    </radialGradient>
  </defs>
  <g>
    <path d="M32.46,18.85H28.19c-4.27,0-5.21-2.06-6-4.27s-.48-5.37-2.69-7.11C19.5,7.47,32.14,6.05,32.46,18.85Z" fill="url(#a)"/>
    <path d="M32.46,18.85H28.19c-4.27,0-4.84-2.28-5.63-4.49s.1-4.68-2.11-6.42C20.45,7.94,32.46,7.19,32.46,18.85Z" fill="url(#b)"/>
    <path d="M32.35,18.85h3.18c3.17,0,3.88-1.53,4.46-3.18s.36-4,2-5.29C42,10.38,32.59,9.32,32.35,18.85Z" fill="url(#c)"/>
    <path d="M32.35,18.85h3.18c3.17,0,3.6-1.69,4.18-3.34s-.07-3.48,1.58-4.77C41.29,10.74,32.35,10.18,32.35,18.85Z" fill="url(#d)"/>
    <path d="M48.63,27.12c0-10-16.58-9.56-16.58-9.56H32s-16.58-.49-16.58,9.56c0,9.7,8.88,23.45,16.63,23.45S48.63,36.82,48.63,27.12Z" fill="#94013e"/>
    <path d="M48,27.8c0-9.76-15.62-9.28-15.62-9.28h-.09S16.66,18,16.66,27.8c0,9.43,8.36,22.78,15.66,22.78S48,37.23,48,27.8Z" fill="url(#e)"/>
    <path d="M28.91,41.06a13.3,13.3,0,0,1-9.38-9.75h0a14.09,14.09,0,0,0,10.08,8.5c5,1.34,10.21-2.32,11.24-3.36h0a.79.79,0,0,1,1.13,0h0a.79.79,0,0,1,0,1.13h0a13.34,13.34,0,0,1-9.49,4h0a13.5,13.5,0,0,1-3.59-.49Z" fill="#fff"/>
    <path d="M19.62,31.7c-.4-1.52.57-4.09,2.49-2.49,3.21,2.68-1,5,2.41,8.52l.48.85-1.44-1L21.31,35A12.06,12.06,0,0,1,19.62,31.7Z" fill="#fff" opacity="0.7"/>
    <path d="M28.24,24a5.37,5.37,0,0,1,5.95,2.5c-.44-2.6-3.17-4.31-6.1-3.81s-5,3-4.52,5.6A5.58,5.58,0,0,1,28.24,24Z" fill="#fff"/>
    <path d="M41.19,25.9c3.05,1.44,2.69,3.93,2.69,3.93a4.18,4.18,0,0,0-7.73-3.09A4.27,4.27,0,0,1,41.19,25.9Z" fill="#fff"/>
  </g>
</svg>
