<svg xmlns="http://www.w3.org/2000/svg" xmlns:xlink="http://www.w3.org/1999/xlink" viewBox="0 0 64 64">
  <defs>
    <radialGradient id="a" cx="32" cy="32" r="20.23" gradientUnits="userSpaceOnUse">
      <stop offset="0" stop-color="#3b8db3"/>
      <stop offset="0.18" stop-color="#3987ae"/>
      <stop offset="0.43" stop-color="#3477a0"/>
      <stop offset="0.71" stop-color="#2b5b8a"/>
      <stop offset="1" stop-color="#1f366b"/>
    </radialGradient>
    <linearGradient id="b" x1="31.92" y1="8.61" x2="31.92" y2="53.78" gradientUnits="userSpaceOnUse">
      <stop offset="0" stop-color="#8bd1e4"/>
      <stop offset="1" stop-color="#3051a2"/>
    </linearGradient>
  </defs>
  <g>
    <path d="M46.82,32.6h0l-.17-.33c-.16-.33-.32-.67-.51-1L32,8.47,17.85,31.28c-.19.32-.35.66-.51,1l-.17.33h0a16.26,16.26,0,1,0,29.64,0Z" fill="url(#a)"/>
    <path d="M45.39,32.93h0l-.15-.3c-.15-.3-.3-.6-.46-.9L31.92,8.61,19.05,31.73c-.17.3-.32.6-.46.9l-.16.3h0A14.78,14.78,0,1,0,46.7,39,14.63,14.63,0,0,0,45.39,32.93Z" fill="url(#b)"/>
    <path d="M26.61,45.56c0-1.48.64-2.69,1.43-2.69s1.21.85,1.38,2c1.81-3.44.83-10,.83-10s-3.13,4.52-5.6,6.09A16.17,16.17,0,0,1,19.56,43S22,48,26.81,46.89A4.53,4.53,0,0,1,26.61,45.56Z" fill="#fff"/>
    <path d="M37.46,45.56c0-1.48-.64-2.69-1.43-2.69s-1.21.85-1.37,2c-1.82-3.44-.84-10-.84-10S37,39.39,39.42,41A16.27,16.27,0,0,0,44.52,43S42.08,48,37.27,46.89A4.54,4.54,0,0,0,37.46,45.56Z" fill="#fff"/>
    <path d="M37.27,46.89s.92-3.63-1.24-4c-1.06-.11-1.37,2-1.37,2A4.42,4.42,0,0,0,37.27,46.89Z" fill="#1f366b"/>
    <path d="M26.81,46.89a7.66,7.66,0,0,0,2.61-2c-.4-2.76-1.62-2.26-2.05-1.82A4,4,0,0,0,26.81,46.89Z" fill="#1f366b"/>
  </g>
</svg>
