<svg xmlns="http://www.w3.org/2000/svg" xmlns:xlink="http://www.w3.org/1999/xlink" viewBox="0 0 64 64">
  <defs>
    <radialGradient id="a" cx="31.92" cy="31.44" r="18.58" gradientUnits="userSpaceOnUse">
      <stop offset="0" stop-color="#acd2e5"/>
      <stop offset="0.19" stop-color="#a7cce2"/>
      <stop offset="0.43" stop-color="#9abcda"/>
      <stop offset="0.71" stop-color="#85a0cc"/>
      <stop offset="1" stop-color="#687cb9"/>
    </radialGradient>
  </defs>
  <g>
    <path d="M46.06,32.78h0l-.16-.31a10.38,10.38,0,0,0-.48-.94L32,9.87,18.57,31.53c-.18.3-.33.62-.49.94l-.16.31h0a15.44,15.44,0,1,0,28.13,0Z" fill="#3a419b"/>
    <path d="M45,33.13h0l-.14-.29c-.15-.29-.29-.59-.45-.87L31.92,9.46,19.4,32c-.17.28-.31.58-.45.87l-.15.29h0A14.39,14.39,0,1,0,46.31,39,14.4,14.4,0,0,0,45,33.13Z" fill="url(#a)"/>
    <path d="M26.89,45.08c0-1.41.6-2.55,1.35-2.55s1.15.8,1.31,1.89c1.72-3.26.79-9.49.79-9.49s-3,4.29-5.31,5.78a15.49,15.49,0,0,1-4.84,2s2.31,4.68,6.88,3.65A4.45,4.45,0,0,1,26.89,45.08Z" fill="#fff"/>
    <path d="M37.18,45.08c0-1.41-.6-2.55-1.35-2.55s-1.15.8-1.3,1.89c-1.73-3.26-.8-9.49-.8-9.49s3,4.29,5.32,5.78a15.48,15.48,0,0,0,4.83,2S41.57,47.37,37,46.34A4.12,4.12,0,0,0,37.18,45.08Z" fill="#fff"/>
  </g>
</svg>
