<svg xmlns="http://www.w3.org/2000/svg" xmlns:xlink="http://www.w3.org/1999/xlink" viewBox="0 0 64 64">
  <defs>
    <linearGradient id="a" x1="-3.94" y1="264.52" x2="2.03" y2="230.71" gradientTransform="matrix(1, -0.02, -0.02, 1.11, 37.47, -241.86)" gradientUnits="userSpaceOnUse">
      <stop offset="0" stop-color="#90cb18"/>
      <stop offset="1" stop-color="#8ac919"/>
    </linearGradient>
  </defs>
  <g>
    <path d="M26.15,49.9c-4.28-4.06-8.77-13.5-7.49-21.76C20.35,17.26,28,10.65,35.79,11.86s12.72,9.76,11,20.63c-1.26,8.16-8.35,14.71-13.65,17.93-1.59,1-2.24,2-4.28,1.68C27.41,51.9,27.5,51.18,26.15,49.9Z" fill="#5e8f1f"/>
    <path d="M13.91,25.18a9.38,9.38,0,0,1,9.39-9.39h0a9.38,9.38,0,0,1,9.39,9.39h0a9.38,9.38,0,0,1-9.39,9.39h0a9.38,9.38,0,0,1-9.39-9.39Zm4,5.4a7.59,7.59,0,0,0,5.39,2.23h0a7.63,7.63,0,0,0,5.4-2.23h0a7.63,7.63,0,0,0,2.23-5.4h0a7.63,7.63,0,0,0-2.23-5.4h0a7.63,7.63,0,0,0-5.4-2.23h0a7.59,7.59,0,0,0-5.39,2.23h0a7.59,7.59,0,0,0-2.24,5.4h0a7.59,7.59,0,0,0,2.24,5.4Z" fill="#5e8f1f"/>
    <path d="M32,24.52A11.07,11.07,0,0,1,43,13.45h0A11.07,11.07,0,0,1,54.09,24.52h0A11.07,11.07,0,0,1,43,35.59h0A11.07,11.07,0,0,1,32,24.52Zm4.49,6.58A9.25,9.25,0,0,0,43,33.83h0A9.25,9.25,0,0,0,49.6,31.1h0a9.27,9.27,0,0,0,2.73-6.58h0a9.25,9.25,0,0,0-2.73-6.58h0A9.25,9.25,0,0,0,43,15.21h0a9.25,9.25,0,0,0-6.58,2.73h0a9.25,9.25,0,0,0-2.73,6.58h0a9.27,9.27,0,0,0,2.73,6.58Z" fill="#5e8f1f"/>
    <path d="M26.65,50.22c-3.55-3.73-7.19-12.49-6-20.23C22.24,19.8,28.8,13.52,35.34,14.53s10.58,8.94,9,19.13c-1.18,7.64-7.26,13.86-11.77,17-1.36.93-1.92,1.87-3.64,1.64C27.69,52.07,27.78,51.4,26.65,50.22Z" fill="url(#a)"/>
    <path d="M33.71,24.56A9.31,9.31,0,1,0,43,15.21,9.31,9.31,0,0,0,33.71,24.56Z" fill="#fff"/>
    <path d="M37.06,26.31a2.7,2.7,0,1,0,2.69-2.69A2.7,2.7,0,0,0,37.06,26.31Z" fill="#416e1b"/>
    <path d="M15.41,25.18a7.9,7.9,0,1,0,7.89-7.9A7.89,7.89,0,0,0,15.41,25.18Z" fill="#fff"/>
    <path d="M19.5,26.53a2.18,2.18,0,1,0,2.18-2.17A2.18,2.18,0,0,0,19.5,26.53Z" fill="#416e1b"/>
    <path d="M32.92,44.15c-.49-3.7-.11-4.7-2.49-4.94h0C28,39,28.22,40.05,27,43.59c-1.31,3.94,1.06,4.81,2.49,4.95h0C31,48.68,33.46,48.27,32.92,44.15Z" fill="#416e1b"/>
  </g>
</svg>
