<svg xmlns="http://www.w3.org/2000/svg" xmlns:xlink="http://www.w3.org/1999/xlink" viewBox="0 0 64 64">
  <defs>
    <linearGradient id="a" x1="-5.54" y1="261.94" x2="-0.09" y2="231.05" gradientTransform="matrix(1, -0.02, -0.02, 1.11, 37.47, -241.86)" gradientUnits="userSpaceOnUse">
      <stop offset="0" stop-color="#90cb18"/>
      <stop offset="1" stop-color="#8ac919"/>
    </linearGradient>
  </defs>
  <g>
    <path d="M24.83,47.25c-3.91-3.7-8-12.33-6.84-19.87,1.54-9.93,8.54-16,15.65-14.87s11.61,8.92,10.07,18.85c-1.15,7.45-7.63,13.43-12.47,16.37-1.45.89-2,1.8-3.91,1.54C26,49.08,26.06,48.43,24.83,47.25Z" fill="#71b01d"/>
    <path d="M13.65,24.68a8.58,8.58,0,0,1,8.58-8.58h0a8.57,8.57,0,0,1,8.57,8.58h0a8.57,8.57,0,0,1-8.57,8.58h0a8.58,8.58,0,0,1-8.58-8.58Zm3.65,4.93a6.94,6.94,0,0,0,4.93,2h0a7,7,0,0,0,4.93-2h0a7,7,0,0,0,2-4.93h0a7,7,0,0,0-2-4.93h0a7,7,0,0,0-4.93-2h0a6.94,6.94,0,0,0-4.93,2h0a7,7,0,0,0-2,4.93h0a7,7,0,0,0,2,4.93Z" fill="#71b01d"/>
    <path d="M30.13,24.08A10.1,10.1,0,0,1,40.24,14h0A10.11,10.11,0,0,1,50.35,24.08h0A10.11,10.11,0,0,1,40.24,34.19h0A10.11,10.11,0,0,1,30.13,24.08Zm4.1,6a8.46,8.46,0,0,0,6,2.49h0a8.46,8.46,0,0,0,6-2.49h0a8.46,8.46,0,0,0,2.49-6h0a8.46,8.46,0,0,0-2.49-6h0a8.43,8.43,0,0,0-6-2.5h0a8.43,8.43,0,0,0-6,2.5h0a8.47,8.47,0,0,0-2.5,6h0a8.47,8.47,0,0,0,2.5,6Z" fill="#71b01d"/>
    <path d="M25.29,47.55c-3.24-3.41-6.57-11.41-5.47-18.47,1.44-9.31,7.43-15,13.4-14.13s9.66,8.17,8.22,17.47c-1.08,7-6.62,12.66-10.75,15.49-1.24.84-1.75,1.7-3.32,1.49C26.23,49.24,26.32,48.63,25.29,47.55Z" fill="url(#a)"/>
    <path d="M31.73,24.12a8.51,8.51,0,1,0,8.47-8.55A8.51,8.51,0,0,0,31.73,24.12Z" fill="#fff"/>
    <path d="M35.26,25.71a2,2,0,1,0,2-2A2,2,0,0,0,35.26,25.71Z" fill="#83ac17"/>
    <path d="M15,24.68a7.21,7.21,0,1,0,7.21-7.21A7.21,7.21,0,0,0,15,24.68Z" fill="#fff"/>
    <path d="M19.09,25.92a1.66,1.66,0,1,0,1.66-1.66A1.66,1.66,0,0,0,19.09,25.92Z" fill="#83ac17"/>
    <path d="M30.52,42c-.37-2.75-.09-3.5-1.85-3.67h0c-1.77-.17-1.64.62-2.51,3.25-1,2.93.78,3.58,1.85,3.68h0C29.07,45.32,30.92,45,30.52,42Z" fill="#5f9a1d"/>
  </g>
</svg>
